<?xml version="1.0" encoding="UTF-8" standalone="no"?>
<!-- Created with Inkscape (http://www.inkscape.org/) -->

<svg
   xmlns:dc="http://purl.org/dc/elements/1.1/"
   xmlns:cc="http://creativecommons.org/ns#"
   xmlns:rdf="http://www.w3.org/1999/02/22-rdf-syntax-ns#"
   xmlns:svg="http://www.w3.org/2000/svg"
   xmlns="http://www.w3.org/2000/svg"
   xmlns:sodipodi="http://sodipodi.sourceforge.net/DTD/sodipodi-0.dtd"
   xmlns:inkscape="http://www.inkscape.org/namespaces/inkscape"
   width="200mm"
   height="200mm"
   viewBox="0 0 200 200"
   version="1.1"
   id="svg1271"
   inkscape:version="0.92.3 (2405546, 2018-03-11)"
   sodipodi:docname="half_circle_3.svg">
  <defs
     id="defs1265" />
  <sodipodi:namedview
     id="base"
     pagecolor="#ffffff"
     bordercolor="#666666"
     borderopacity="1.0"
     inkscape:pageopacity="0.0"
     inkscape:pageshadow="2"
     inkscape:zoom="0.42139742"
     inkscape:cx="44.075405"
     inkscape:cy="403.98347"
     inkscape:document-units="mm"
     inkscape:current-layer="layer1"
     showgrid="false"
     inkscape:window-width="1366"
     inkscape:window-height="716"
     inkscape:window-x="-8"
     inkscape:window-y="-8"
     inkscape:window-maximized="1" />
  <metadata
     id="metadata1268">
    <rdf:RDF>
      <cc:Work
         rdf:about="">
        <dc:format>image/svg+xml</dc:format>
        <dc:type
           rdf:resource="http://purl.org/dc/dcmitype/StillImage" />
        <dc:title />
      </cc:Work>
    </rdf:RDF>
  </metadata>
  <g
     inkscape:label="Layer 1"
     inkscape:groupmode="layer"
     id="layer1"
     transform="translate(0,-97)">
    <path
       style="opacity:1;fill:#89ccff;fill-opacity:1;stroke:none;stroke-width:0.74854112;stroke-linejoin:round;stroke-miterlimit:4;stroke-dasharray:none;stroke-dashoffset:0;stroke-opacity:1"
       d="M 368.97266,0.10742188 C 292.83162,1.9169468 219.01357,26.687939 157.19336,71.173828 -6.1066678,188.68457 -48.731304,413.52295 60.228516,582.64844 112.69537,664.08627 194.43018,722.26834 288.55705,745.18173 l 7.29596,-29.97505 C 209.40928,694.16328 134.3462,640.73007 86.162109,565.93945 -13.904054,410.61837 25.241664,204.13187 175.21289,96.212891 c 149.971,-107.919218 358.19694,-79.441258 473.68359,64.783199 55.60984,69.44721 82.42976,157.5965 74.9222,246.24754 -7.50755,88.65104 -48.76933,171.03471 -115.26595,230.14114 l 20.49415,23.05664 C 701.45346,596.08179 746.38245,506.37616 754.55731,409.84614 762.73217,313.31612 733.5287,217.33241 672.97656,141.71289 599.27747,49.675611 486.84788,-2.6942593 368.97266,0.10742188 Z"
       transform="matrix(0.26458333,0,0,0.26458333,0,97)"
       id="path1818"
       inkscape:connector-curvature="0"
       sodipodi:nodetypes="cscccsccsccscc" />
  </g>
</svg>
