<?xml version="1.0" encoding="UTF-8" standalone="no"?>
<!-- Created with Inkscape (http://www.inkscape.org/) -->

<svg
   xmlns:dc="http://purl.org/dc/elements/1.1/"
   xmlns:cc="http://creativecommons.org/ns#"
   xmlns:rdf="http://www.w3.org/1999/02/22-rdf-syntax-ns#"
   xmlns:svg="http://www.w3.org/2000/svg"
   xmlns="http://www.w3.org/2000/svg"
   xmlns:sodipodi="http://sodipodi.sourceforge.net/DTD/sodipodi-0.dtd"
   xmlns:inkscape="http://www.inkscape.org/namespaces/inkscape"
   width="200mm"
   height="200mm"
   viewBox="0 0 200 200"
   version="1.1"
   id="svg1271"
   inkscape:version="0.92.3 (2405546, 2018-03-11)"
   sodipodi:docname="plane.svg">
  <defs
     id="defs1265">
    <clipPath
       clipPathUnits="userSpaceOnUse"
       id="clipPath5121">
      <rect
         style="fill:none;fill-opacity:1;stroke:#f0f0f0;stroke-width:0.26458332;stroke-opacity:1"
         id="rect5123"
         width="135.23837"
         height="158.7581"
         x="14.432554"
         y="33.472244" />
    </clipPath>
  </defs>
  <sodipodi:namedview
     id="base"
     pagecolor="#ffffff"
     bordercolor="#666666"
     borderopacity="1.0"
     inkscape:pageopacity="0.0"
     inkscape:pageshadow="2"
     inkscape:zoom="1.9332576"
     inkscape:cx="578.20081"
     inkscape:cy="126.49647"
     inkscape:document-units="mm"
     inkscape:current-layer="layer1"
     showgrid="false"
     inkscape:window-width="1366"
     inkscape:window-height="716"
     inkscape:window-x="-8"
     inkscape:window-y="-8"
     inkscape:window-maximized="1" />
  <metadata
     id="metadata1268">
    <rdf:RDF>
      <cc:Work
         rdf:about="">
        <dc:format>image/svg+xml</dc:format>
        <dc:type
           rdf:resource="http://purl.org/dc/dcmitype/StillImage" />
        <dc:title />
      </cc:Work>
    </rdf:RDF>
  </metadata>
  <g
     inkscape:label="Layer 1"
     inkscape:groupmode="layer"
     id="layer1"
     transform="translate(0,-97)">
    <path
       style="fill:#0073ff;fill-opacity:1;stroke:none;stroke-width:0.25400001;stroke-opacity:1"
       d="m -78.206133,206.7353 c -0.141829,-0.14183 -0.203504,-0.74021 -0.137055,-1.32974 0.08846,-0.78486 0.01156,-1.16255 -0.287186,-1.41049 -0.350321,-0.29074 -0.408002,-0.27039 -0.408002,0.14397 0,0.55737 -0.676009,1.61162 -1.033405,1.61162 -0.140775,0 -0.174409,-0.42644 -0.08013,-1.016 0.154563,-0.96659 -0.146884,-1.39397 -0.537462,-0.762 -0.08634,0.1397 -0.438163,0.254 -0.781829,0.254 -0.541782,0 -0.60339,0.0855 -0.463431,0.64314 0.301769,1.20234 0.242783,1.51368 -0.301542,1.59157 -1.138437,0.1629 -2.933733,-2.65957 -2.875494,-4.52071 0.01093,-0.34925 0.156042,-0.003 0.322473,0.76958 0.393964,1.82866 1.636562,3.54842 2.563885,3.54842 0.08165,0 0.0928,-0.82868 0.02478,-1.8415 -0.103871,-1.54662 -0.04727,-1.93302 0.353454,-2.413 0.262422,-0.31433 0.601683,-0.5715 0.753916,-0.5715 0.357882,0 0.350089,-0.65968 -0.0271,-2.29374 -0.167136,-0.72407 -0.445044,-1.37066 -0.617574,-1.43687 -0.558878,-0.21446 -1.9269,1.03097 -2.563314,2.33361 -0.422558,0.86491 -0.567995,1.03189 -0.455961,0.52349 0.31952,-1.44993 2.03224,-3.19049 3.139451,-3.19049 0.284515,0 0.587941,-0.1143 0.67428,-0.254 0.08634,-0.1397 0.63601,-0.23479 1.22149,-0.21131 l 1.06451,0.0427 -0.96668,0.10048 c -0.548594,0.057 -1.029623,0.26451 -1.112215,0.47974 -0.08004,0.20859 0.09827,1.20144 0.396259,2.20632 0.414426,1.39755 0.485997,2.02113 0.304446,2.65257 -0.188952,0.65717 -0.163275,0.8255 0.125921,0.8255 0.199798,0 0.363269,-0.21908 0.363269,-0.48684 0,-0.26775 0.129562,-0.53002 0.287915,-0.5828 0.343481,-0.1145 1.705611,-4.1757 1.503526,-4.48279 -0.07724,-0.11737 -0.311891,-0.27867 -0.521441,-0.35843 -0.319515,-0.12163 -0.314287,-0.14827 0.0324,-0.16509 0.22737,-0.011 0.55569,0.1514 0.729601,0.36095 0.173911,0.20955 0.452272,0.381 0.61858,0.381 0.471078,0 1.599024,1.29777 2.034945,2.34134 0.621112,1.48689 0.500425,2.9266 -0.372999,4.44957 -0.816428,1.42359 -2.46769,2.57232 -2.972283,2.06773 z m 1.724412,-0.91063 c 1.011939,-0.85149 1.748398,-2.42038 1.755766,-3.74032 0.0062,-1.11771 -0.750691,-2.87791 -1.547771,-3.59925 -0.501785,-0.45411 -0.538883,-0.45507 -0.855469,-0.0221 -0.182015,0.24893 -0.414328,0.99036 -0.516252,1.64763 -0.142705,0.92026 -0.228534,1.07824 -0.373274,0.68705 -0.13356,-0.36098 -0.15149,5.08686 -0.0186,5.6515 0.06386,0.27132 0.880688,-0.0566 1.5556,-0.62449 z m -1.133946,-1.4934 c -0.205653,-2.00729 0.431971,-5.43861 1.010625,-5.43861 0.192688,0 0.593585,0.47679 0.890882,1.05955 0.78985,1.54823 0.603872,3.67048 -0.434032,4.95284 -0.41853,0.51711 -0.880932,0.98019 -1.027559,1.02907 -0.157741,0.0526 -0.337365,-0.60189 -0.439916,-1.60285 z m 5.604624,2.52005 c -0.09313,-0.0931 -0.169334,-0.34357 -0.169334,-0.55654 0,-0.31485 0.06144,-0.3032 0.328712,0.0623 0.230885,0.31576 0.589945,0.4247 1.2065,0.36605 l 0.877788,-0.0835 0.127,-2.39277 c 0.08456,-1.5932 0.233097,-2.42783 0.4445,-2.49767 0.206398,-0.0682 0.311253,0.14693 0.299648,0.61477 -0.01566,0.63114 -0.0447,0.65718 -0.236148,0.21167 -0.144176,-0.33552 -0.224356,0.2805 -0.236147,1.81432 -0.01439,1.87221 -0.09573,2.35221 -0.419627,2.4765 -0.53821,0.20653 -2.011248,0.19649 -2.222892,-0.0152 z m 3.277809,-0.22981 c -0.219528,-0.21952 -0.394566,-0.591 -0.388973,-0.8255 0.0067,-0.28175 0.141247,-0.18457 0.396656,0.28655 0.331697,0.61183 0.5193,0.70185 1.323331,0.635 l 0.936843,-0.0779 0.135857,-1.905 c 0.152344,-2.13619 0.313835,-2.54 1.015784,-2.54 0.40069,0 0.46083,0.12914 0.340444,0.73107 -0.212349,1.06174 0.690128,2.94654 1.648041,3.44189 1.598432,0.82659 4.070527,0.40937 5.022344,-0.84761 0.24767,-0.32708 0.419557,-0.26586 1.215339,0.43285 0.815767,0.71625 1.10398,0.8138 2.404465,0.8138 1.684063,0 3.146374,-0.7634 3.283715,-1.71425 0.112885,-0.78155 -1.05679,-1.05742 -2.054799,-0.48464 -0.897905,0.51532 -1.550203,0.5363 -1.943423,0.0625 -0.432099,-0.52065 -0.114305,-0.61579 2.278113,-0.68203 l 2.148119,-0.0595 0.326291,0.74045 c 0.785782,1.78317 0.969116,2.01153 1.680911,2.09378 1.280332,0.14794 1.870141,-0.14894 2.183759,-1.09922 0.3346,-1.01385 0.62214,-1.11712 1.023313,-0.36752 0.499013,0.93242 1.777149,1.50843 3.349386,1.50946 1.262238,7.6e-4 1.568821,-0.10192 2.3495,-0.78736 l 0.897839,-0.78832 0.897839,0.78832 c 0.786836,0.69085 1.082751,0.78831 2.39351,0.78831 1.238507,0 1.630045,-0.11307 2.277161,-0.65758 0.429819,-0.36167 0.781489,-0.53144 0.781489,-0.37727 0,0.60896 -1.633301,1.28694 -3.10266,1.2879 -1.265634,7.6e-4 -1.567988,-0.10119 -2.359403,-0.79606 -0.784063,-0.68841 -0.949648,-0.74539 -1.215337,-0.41816 -0.673577,0.82959 -1.589816,1.21517 -2.887581,1.21517 -1.626997,0 -2.458118,-0.29958 -3.274271,-1.18023 -0.345285,-0.37257 -0.655231,-0.6309 -0.688769,-0.57408 -0.03354,0.0568 -0.236123,0.44621 -0.450189,0.86531 -0.339263,0.66421 -0.545531,0.77204 -1.607236,0.84022 -1.453639,0.0933 -1.749841,-0.11307 -2.20364,-1.5357 -0.257363,-0.80683 -0.368196,-0.94589 -0.435189,-0.54601 -0.04944,0.29508 -0.43073,0.86306 -0.847318,1.26218 -0.649036,0.62181 -1.001575,0.73911 -2.463419,0.8196 -1.499712,0.0826 -1.821154,0.0153 -2.658486,-0.55602 l -0.9525,-0.64996 -0.924445,0.62734 c -0.712026,0.4832 -1.251892,0.62713 -2.3495,0.6264 -2.401321,-0.002 -3.874704,-1.2867 -3.933749,-3.43105 -0.06306,-2.29028 -0.920305,-0.90878 -0.920305,1.48312 0,1.26163 -0.09279,1.67613 -0.401775,1.7947 -0.732154,0.28096 -1.842169,0.15995 -2.247082,-0.24497 z m 14.840856,-2.14085 c 0,-0.1397 -0.28575,-0.254 -0.635,-0.254 -0.34925,0 -0.635,0.1143 -0.635,0.254 0,0.1397 0.28575,0.254 0.635,0.254 0.34925,0 0.635,-0.1143 0.635,-0.254 z m 21.965944,1.66288 c -0.54563,-0.54564 -0.820354,-1.02505 -0.726918,-1.26854 0.195636,-0.50982 0.604972,-0.25091 0.604972,0.38265 0,0.27115 0.2286,0.72161 0.508,1.00101 0.621556,0.62155 2.566622,0.70702 3.042448,0.13369 0.273667,-0.32975 0.396826,-0.32975 1.034488,0 1.099278,0.56846 3.080528,0.48445 3.907008,-0.16566 l 0.68645,-0.53996 0.37821,0.53996 c 0.39773,0.56785 1.95378,0.77238 2.24847,0.29555 0.0954,-0.15434 0.36991,-0.14472 0.74487,0.0261 0.75536,0.34416 1.67405,-0.0985 1.67405,-0.80665 0,-0.60099 0.3259,-0.64354 0.7759,-0.10131 0.673,0.81091 1.80322,1.18591 3.22011,1.06841 1.11414,-0.0924 1.52198,-0.26292 2.16378,-0.90471 l 0.79086,-0.79087 1.00096,0.90431 c 0.96414,0.87105 1.06035,0.90052 2.61627,0.80145 1.35439,-0.0862 1.7379,-0.2203 2.37421,-0.82993 0.55933,-0.53588 0.78787,-0.63298 0.86904,-0.36924 0.0606,0.1968 0.17467,0.55785 0.25353,0.80233 0.10435,0.32346 0.41483,0.4445 1.1402,0.4445 1.19259,0 1.30514,-0.2081 1.30514,-2.413 0,-1.93403 0.15569,-2.413 0.78433997,-2.413 0.57134,0 0.71493,0.52296 0.80206,2.921 l 0.0646,1.778 0.84209003,0.0808 c 1.33457,0.1281 1.57091,-0.25297 1.57091,-2.53291 0,-1.58964 0.0831,-2.04074 0.39808,-2.16162 0.21894,-0.084 0.52115,-0.0297 0.67159,0.12076 0.19535,0.19535 0.11789,0.23282 -0.27108,0.1311 -0.52522,-0.13735 -0.54459,-0.0657 -0.54459,2.01511 0,2.51385 -0.19261,2.79704 -1.82273,2.67975 l -1.09827003,-0.079 -0.127,-2.286 c -0.10034,-1.80622 -0.20696,-2.286 -0.508,-2.286 -0.30043,0 -0.39688,0.42715 -0.45610997,2.01996 -0.0413,1.11098 -0.19818,2.16826 -0.3486,2.3495 -0.15042,0.18125 -0.78454,0.32954 -1.40917,0.32954 -0.92206,0 -1.16066,-0.0956 -1.26852,-0.508 -0.16452,-0.62913 -0.26664,-0.62913 -1.2166,0 -0.53608,0.35503 -1.19238,0.50515 -2.21366,0.50632 -1.25203,0.002 -1.57101,-0.10311 -2.31953,-0.76032 -0.47733,-0.4191 -0.93262,-0.762 -1.01175,-0.762 -0.0791,0 -0.44944,0.28318 -0.8229,0.62929 -1.18161,1.09508 -3.73195,1.1895 -5.1054,0.18901 -0.68617,-0.49984 -0.68956,-0.4998 -1.10391,0.0119 -0.56746,0.70078 -4.27026,0.93418 -4.73605,0.29853 -0.26875,-0.36675 -0.36435,-0.36709 -1.06688,-0.004 -0.8884,0.45941 -3.126838,0.52936 -3.888881,0.12152 -0.375026,-0.20071 -0.595394,-0.20071 -0.796102,0 -0.152642,0.15262 -0.829981,0.27751 -1.505197,0.27751 -1.061214,0 -1.346591,-0.11893 -2.104788,-0.87712 z m 36.115388,0.70778 c -0.0931,-0.0931 -0.14838,-1.09325 -0.12276,-2.2225 l 0.0466,-2.05316 0.14392,2.032 0.14392,2.032 0.84209,0.0808 c 1.32453,0.12714 1.56426,-0.25543 1.62203,-2.58843 l 0.0511,-2.0644 0.0865,1.96534 c 0.11155,2.53417 -0.12408,2.98766 -1.55235,2.98766 -0.60045,0 -1.16793,-0.0762 -1.26106,-0.16934 z m -67.111372,-0.71834 c -1.087442,-0.55688 -1.637959,-1.61627 -1.637959,-3.15201 0,-1.19349 -0.04704,-1.29431 -0.6039,-1.29431 -0.92664,0 -1.289347,0.67085 -1.4281,2.64137 l -0.127,1.80363 -0.816116,0.0789 -0.816117,0.0789 -0.07288,-2.49189 c -0.07222,-2.46925 -0.07865,-2.49189 -0.707884,-2.49189 -0.628943,0 -0.635693,0.0236 -0.707698,2.4765 l -0.0727,2.4765 h -0.879802 -0.879803 v -2.38202 c 0,-2.18181 -0.04804,-2.41581 -0.5715,-2.784 l -0.571499,-0.40197 0.5561,-0.45451 c 0.305856,-0.24997 0.633329,-0.77184 0.727718,-1.1597 0.206868,-0.85006 0.790304,-1.1998 2.001483,-1.1998 0.695756,0 0.905698,0.10379 0.905698,0.44777 0,0.24627 -0.257175,0.56059 -0.5715,0.6985 -1.081885,0.47465 -0.688382,1.00229 0.84999,1.13973 0.781819,0.0699 1.582243,0.26042 1.77872,0.4235 0.275155,0.22837 0.470344,0.21378 0.849556,-0.0635 0.646148,-0.47248 1.158445,-0.45544 1.528643,0.0508 0.27673,0.37845 0.363042,0.37845 1.09489,0 0.436961,-0.22597 1.332196,-0.41084 1.989416,-0.41084 1.056363,0 1.303053,0.11365 2.127179,0.97998 l 0.932241,0.97999 1.050595,-0.97999 c 0.929238,-0.86678 1.197417,-0.97998 2.321595,-0.97998 1.050026,0 1.421882,0.13248 2.138868,0.762 1.071146,0.94048 1.240134,0.94992 1.136485,0.0635 -0.07308,-0.62493 -0.0015,-0.6985 0.680321,-0.6985 0.722681,0 0.792746,0.0957 1.357889,1.85454 0.350144,1.08971 0.71677,1.81475 0.889,1.75807 0.161211,-0.0531 0.515234,-0.86239 0.786716,-1.79853 0.396814,-1.36829 0.610502,-1.73139 1.089734,-1.85167 0.37799,-0.0949 0.769823,0.008 1.0708,0.27995 0.436014,0.39459 0.537579,0.39704 1.24715,0.0301 1.612875,-0.83405 3.745598,-0.29701 4.482932,1.12884 0.454005,0.87795 0.787083,0.96395 1.010237,0.26085 0.08673,-0.27326 0.503253,-0.78761 0.925604,-1.143 0.90741,-0.76353 2.595042,-0.87634 3.798687,-0.25391 0.709825,0.36707 0.802784,0.35765 1.447886,-0.14675 0.379151,-0.29646 0.747014,-0.84444 0.817473,-1.21775 0.103256,-0.54705 0.288059,-0.69419 0.9525,-0.75834 0.769066,-0.0742 0.82439,-0.0269 0.82439,0.70479 0,0.60296 0.146871,0.84022 0.635,1.02581 0.790334,0.30048 0.829358,0.95306 0.0635,1.06183 -0.518668,0.0737 -0.578411,0.23828 -0.646265,1.7807 -0.06418,1.45884 -0.0059,1.73637 0.411104,1.95957 0.653222,0.34959 0.806661,0.13471 0.806661,-1.12969 0,-1.82469 0.247853,-2.51538 1.116155,-3.11035 1.381009,-0.94628 3.275219,-0.7332 4.655719,0.52373 0.61677,0.56156 0.55704,0.60982 0.98665,-0.7973 0.0741,-0.24268 0.31415,-0.29347 0.80113,-0.16951 0.88361,0.22491 1.5262,0.22373 2.42994,-0.004 0.67573,-0.17061 0.71362,-0.13777 0.635,0.55052 -0.0658,0.57623 -0.22658,0.74851 -0.75569,0.80977 -1.09345,0.12662 -1.45302,0.76319 -1.53748,2.7219 l -0.0764,1.77228 -0.8255,0.0796 c -0.68324,0.0659 -0.8255,-0.008 -0.8255,-0.42951 0,-0.76097 -0.47586,-0.90977 -1.09831,-0.34343 -1.32255,1.20332 -2.54142,1.37385 -4.048031,0.56635 -1.133149,-0.60733 -1.45766,-0.63561 -1.45766,-0.127 0,0.2815 -0.294734,0.381 -1.128598,0.381 -1.552001,0 -1.919402,-0.56707 -1.919402,-2.96253 0,-1.99245 -0.346583,-2.58553 -0.965875,-1.65283 -0.429362,0.64666 -1.606875,0.743 -2.082124,0.17036 -0.41908,-0.50496 -1.628564,-0.48611 -2.058627,0.0321 -0.506092,0.6098 -0.428981,2.24514 0.135265,2.86863 0.600238,0.66325 1.167925,0.66903 1.992671,0.0203 0.635472,-0.49987 1.469661,-0.66237 1.784421,-0.34761 0.275953,0.27595 -0.327381,1.11559 -1.171441,1.63025 -1.6458,1.00351 -3.916931,0.31051 -4.637983,-1.41521 l -0.369123,-0.88344 h -2.427257 c -2.361392,0 -2.425055,0.0153 -2.346091,0.56301 0.04464,0.30966 0.375874,0.72786 0.736074,0.92935 0.578698,0.32371 0.753188,0.31731 1.499522,-0.055 1.720034,-0.85807 2.549941,-0.11976 0.957069,0.85143 -1.63612,0.99756 -4.003865,0.37299 -4.825116,-1.27278 -0.243987,-0.48895 -0.571591,-0.889 -0.728009,-0.889 -0.156419,0 -0.474396,0.51435 -0.706618,1.143 -0.412534,1.11677 -0.447784,1.143 -1.536362,1.143 h -1.114143 l -0.529626,-1.57671 c -0.587316,-1.74846 -1.164625,-2.57939 -1.164625,-1.67627 0,0.70202 -0.438983,0.83998 -2.672783,0.83998 -1.969656,0 -2.341189,0.19016 -1.917662,0.98153 0.369402,0.69024 1.405519,0.88032 2.294023,0.42086 1.03457,-0.535 1.848318,-0.50787 1.742801,0.0581 -0.111211,0.59651 -1.643116,1.33261 -2.774317,1.3331 -1.16062,5.1e-4 -2.528677,-0.89774 -3.004401,-1.97264 l -0.363337,-0.82096 h -2.225172 c -1.223843,0 -2.294351,0.11194 -2.378908,0.24875 -0.234012,0.37864 0.310396,1.21963 0.913417,1.41103 0.312372,0.0991 0.942955,-0.0132 1.510612,-0.26922 0.535925,-0.24167 1.173371,-0.36305 1.416548,-0.26973 0.395302,0.15169 0.372237,0.23957 -0.217727,0.82953 -0.831751,0.83175 -2.73258,1.05828 -3.893134,0.46396 z m 47.257032,0.0352 c -1.14823,-0.5246 -1.69705,-1.28854 -1.84059,-2.56203 -0.26542,-2.35475 0.95471,-3.69751 3.35984,-3.69751 1.25383,0 1.53719,0.0964 2.18329,0.74246 0.40836,0.40835 0.74246,0.86555 0.74246,1.016 0,0.41526 -1.67154,0.32686 -2.032,-0.10746 -0.17391,-0.20955 -0.63862,-0.381 -1.03269,-0.381 -1.47816,0 -2.0599,2.2645 -0.88385,3.44054 0.7766,0.7766 0.93473,0.77562 1.87022,-0.0115 1.19835,-1.00834 2.43209,-0.75462 1.82713,0.37575 -0.64009,1.19603 -2.82078,1.8121 -4.19381,1.1848 z m 6.85265,-0.01 c -0.42204,-0.18389 -1.06512,-0.72474 -1.42906,-1.20189 -0.58949,-0.77286 -0.64103,-1.00379 -0.47222,-2.11611 0.26837,-1.76837 1.5371,-2.93176 3.19721,-2.93176 1.36733,0 2.40415,0.53728 3.00736,1.55842 0.55753,0.94384 0.85762,0.92115 0.95647,-0.0723 0.10406,-1.04581 0.72644,-1.44755 1.55531,-1.00395 0.46506,0.24889 0.75036,0.26181 1.14283997,0.0518 0.74344,-0.39788 1.87253003,-0.34639 2.53193003,0.11547 0.51093,0.35787 0.6181,0.35787 1.12903,0 0.91979,-0.64424 2.35485,-0.51206 2.97305,0.27385 0.44648,0.56761 0.52643,1.02641 0.52643,3.02083 0,2.51973 -0.23628,2.95915 -1.2884,2.39607 -0.41219,-0.2206 -0.4896,-0.54436 -0.4896,-2.04779 0,-1.98548 -0.28577,-2.76836 -1.01053,-2.76836 -0.86154,0 -1.27547,0.97151 -1.27547,2.99361 v 1.86457 l -0.8255,-0.0796 -0.82550003,-0.0796 -0.0751,-2.01997 c -0.0784,-2.10802 -0.30955,-2.67903 -1.08458,-2.67903 -0.83974997,0 -1.25330997,0.9878 -1.25330997,2.99361 v 1.86457 l -0.8255,-0.0796 c -0.74019,-0.0714 -0.83393,-0.17145 -0.90711,-0.96859 -0.11987,-1.30579 -0.41645,-1.41705 -1.02554,-0.38472 -0.85936,1.45651 -2.6273,1.99977 -4.2322,1.30049 z m -10.69183,-0.26499 c -0.20087,-0.52347 0.33965,-1.16966 0.82319,-0.98411 0.50682,0.19449 0.33515,1.19582 -0.22327,1.30225 -0.2449,0.0467 -0.51486,-0.0965 -0.59992,-0.31814 z m 27.90568,-0.15045 c -0.6383,-0.25656 -0.79845,-1.44153 -0.2667,-1.97328 0.23567,-0.23567 17.00107,-0.3048 73.914,-0.3048 H 155.6576 V 116.97765 30.490655 H 38.183004 -79.291606 l -0.06388,82.867495 -0.06388,82.86751 h -1.016 -1.016 V 112.27865 28.331654 H 38.182614 157.8166 l 0.0639,88.573366 c 0.0607,84.17288 0.0418,88.5833 -0.381,88.77301 -0.24467,0.1098 -33.59186,0.14161 -74.104846,0.0707 l -73.66,-0.12893 73.533,-0.0603 c 40.443136,-0.0332 73.733176,-0.0609 73.977846,-0.0616 0.42308,-10e-4 0.44173,-4.33158 0.381,-88.4568 L 157.5626,28.585604 H 38.182614 -81.197376 v 83.692996 83.69301 h 0.762 0.762 l 0.127,-82.80401 0.127,-82.803995 H 38.182614 155.7846 l 0.0639,86.677495 0.0639,86.67751 H 82.399754 c -40.43193,0 -73.69339,0.0694 -73.91436,0.15417 -0.22098,0.0848 -0.40178,0.43322 -0.40178,0.77426 0,0.45666 0.21758,0.71466 0.8255,0.97889 0.89372,0.38844 0.43196,0.49458 -0.508,0.11676 z m -92.024313,-1.15583 c -0.686413,-1.11064 -0.907154,-2.79495 -0.520031,-3.96794 0.283573,-0.85924 1.924872,-2.70496 2.179203,-2.45063 0.07148,0.0715 0.287906,0.65477 0.480951,1.29622 l 0.350992,1.16625 -0.878081,0.84543 c -0.866297,0.83407 -0.875837,0.86672 -0.710929,2.43292 0.193067,1.83363 -0.06698,2.029 -0.902105,0.67775 z m 11.51547,-0.48725 c 0.0019,-0.6985 0.05124,-0.95411 0.109618,-0.56801 0.05838,0.3861 0.05682,0.9576 -0.0035,1.27 -0.06029,0.3124 -0.108058,-0.003 -0.106151,-0.70199 z m 80.868683,0.97366 c -0.85961,-0.8596 -1.9821,-0.84666 73.43986,-0.84666 56.912926,0 73.678326,-0.0691 73.913986,-0.3048 0.44414,-0.44414 0.44414,-173.444264 0,-173.888406 -0.23619,-0.236188 -26.76192,-0.3048 -117.837846,-0.3048 -106.509555,0 -117.57048,0.03744 -117.932187,0.399143 -0.361219,0.36122 -0.399143,8.240707 -0.399143,82.931003 0,73.19232 -0.04312,82.53186 -0.381,82.53186 -0.337892,0 -0.381,-9.42614 -0.381,-83.3112 V 28.968267 l 118.68149,-0.06431 c 65.274816,-0.03537 118.881996,0.0257 119.127066,0.135708 0.42353,0.190119 0.44542,4.534329 0.44233,87.805385 -0.002,48.18295 -0.0717,87.78362 -0.15525,88.00149 -0.13722,0.35757 -7.3626,0.39612 -74.250486,0.39612 -40.75417,0 -74.17469,-0.0762 -74.26782,-0.16934 z m -70.717831,-0.25288 c -0.174625,-0.0705 -0.3175,-0.29004 -0.3175,-0.48795 0,-0.27946 0.411307,-0.35472 1.8415,-0.33692 1.566969,0.0195 1.720298,0.058 1.028504,0.25802 -0.447147,0.12931 -0.882518,0.3476 -0.967491,0.48509 -0.160411,0.25955 -1.032863,0.30455 -1.585013,0.0818 z m 1.3335,-0.33978 c 0.09183,-0.14859 -0.171692,-0.254 -0.635,-0.254 -0.463309,0 -0.726834,0.10541 -0.635,0.254 0.08634,0.1397 0.372089,0.254 0.635,0.254 0.26291,0 0.54866,-0.1143 0.635,-0.254 z m 17.314332,0.33866 c -0.09313,-0.0931 -0.169334,-0.32173 -0.169334,-0.508 0,-0.24315 0.411915,-0.33819 1.4605,-0.33699 l 1.4605,0.002 -0.762,0.50465 c -0.760981,0.50398 -1.669684,0.65865 -1.989666,0.33867 z m 1.481666,-0.33866 c 0.09159,-0.14819 -0.166695,-0.254 -0.620009,-0.254 -0.427345,0 -0.776991,0.1143 -0.776991,0.254 0,0.1397 0.279004,0.254 0.620009,0.254 0.341005,0 0.690651,-0.1143 0.776991,-0.254 z m 5.215935,-0.2373 c -0.383636,-0.71684 -0.321584,-1.69977 0.136208,-2.15756 0.521945,-0.52194 0.784885,-0.50364 1.563548,0.10886 0.80391,0.63235 2.054156,0.67242 2.2841,0.0732 0.133626,-0.34823 0.204678,-0.29335 0.356844,0.27562 0.214643,0.80258 -0.08739,1.95544 -0.385798,1.4726 -0.292717,-0.47363 -1.63051,-0.34475 -2.185837,0.21058 -0.64386,0.64386 -1.429449,0.65127 -1.769065,0.0167 z m 1.642065,-0.2707 c 0.327888,-0.36232 0.782312,-0.508 1.584533,-0.508 1.529082,0 1.299001,-0.54579 -0.256157,-0.60765 -0.853145,-0.0339 -1.299832,-0.18972 -1.563933,-0.54543 -0.296149,-0.39887 -0.461071,-0.44198 -0.829067,-0.2167 -0.536425,0.3284 -0.693094,0.90999 -0.477029,1.77087 0.189715,0.75589 0.909183,0.80578 1.541653,0.10691 z m 14.921973,0.30323 c -0.26461,-0.68438 0.32221,-1.94347 1.02019,-2.18894 0.87347,-0.30718 0.9512,-0.21374 1.07812,1.29606 l 0.10497,1.24871 -1.0375,-0.012 c -0.60938,-0.007 -1.09043,-0.14894 -1.16578,-0.3438 z m 1.83347,-1.00173 c -0.0683,-1.13575 -0.64081,-1.3805 -1.23726,-0.52895 -0.68092,0.97215 -0.52805,1.48145 0.44468,1.48145 0.82293,0 0.84806,-0.0302 0.79258,-0.9525 z m 3.23435,1.1557 c -0.16764,-0.16764 -0.3048,-0.79874 -0.3048,-1.40245 0,-0.92549 0.1,-1.1432 0.63752,-1.38811 0.54264,-0.24725 0.72462,-0.20864 1.22287,0.25944 0.35273,0.33138 0.91393,0.54992 1.41215,0.54992 0.71214,0 0.81554,0.0793 0.74563,0.5715 -0.0615,0.43334 -0.27429,0.59026 -0.88007,0.64911 -0.43939,0.0427 -1.00003,0.29986 -1.24586,0.5715 -0.508,0.56133 -1.13992,0.6366 -1.58744,0.18909 z m 1.4732,-0.4572 c 0.19157,-0.35795 0.53183,-0.508 1.15194,-0.508 0.61295,0 0.88006,-0.11564 0.88006,-0.381 0,-0.25002 -0.25019,-0.381 -0.72774,-0.381 -0.40026,0 -1.03244,-0.23967 -1.40484,-0.5326 -0.54539,-0.42901 -0.74967,-0.47236 -1.05025,-0.2229 -0.37348,0.30996 -0.52307,2.04493 -0.20383,2.36416 0.3422,0.3422 1.09038,0.15515 1.35466,-0.33866 z m -16.093213,-0.66129 c -0.158125,-1.15364 -0.06615,-1.62471 0.317228,-1.62471 0.107816,0 0.186797,0.62796 0.175512,1.39547 -0.02502,1.70063 -0.275115,1.81699 -0.49274,0.22924 z m -19.005457,-0.49422 c -0.07682,-0.13282 -0.335536,-0.84157 -0.574916,-1.57499 l -0.435232,-1.3335 h -1.10142 c -0.650481,0 -1.148496,0.12999 -1.216401,0.3175 -0.09051,0.24991 -0.238541,0.24423 -0.695429,-0.0267 -0.319247,-0.18929 -1.105707,-0.44201 -1.747687,-0.5616 l -1.167237,-0.21744 1.27,0.14643 c 0.6985,0.0805 1.993354,0.12669 2.877454,0.10257 1.60287,-0.0437 2.329546,0.23351 2.329546,0.88878 0,0.18335 0.127749,0.65513 0.283888,1.0484 l 0.283885,0.71504 0.439166,-1.27 0.439164,-1.27 1.626448,-0.0184 c 0.894547,-0.0101 2.066099,-0.11066 2.603449,-0.22337 1.232098,-0.25842 2.667457,0.15167 3.451347,0.98608 l 0.587923,0.62582 0.94298,-0.7578 c 1.143351,-0.91882 2.428964,-1.16424 3.916711,-0.7477 1.440487,0.40331 2.125929,0.0749 2.236469,-1.07143 0.07813,-0.81025 0.102517,-0.82516 1.349568,-0.82516 1.239337,0 1.273066,0.0201 1.397,0.83101 0.176063,1.15205 1.220579,1.71014 2.2225,1.18749 0.962404,-0.50204 2.317454,-0.45857 3.432904,0.11012 0.80727,0.41157 0.97863,0.42725 1.23911,0.11338 0.20944,-0.25235 0.73791,-0.34549 1.72039,-0.3032 0.77995,0.0336 1.68087,-0.0269 2.00203,-0.13445 0.38672,-0.12945 0.79029,-0.0603 1.19492,0.20485 0.56695,0.37148 0.67657,0.36164 1.52102,-0.1366 1.37558,-0.81161 3.41182,-0.58615 4.5346,0.50209 l 0.83318,0.80755 0.59302,-0.63125 c 1.22483,-1.30377 3.6696,-1.48254 5.16408,-0.37762 0.69511,0.51392 0.77762,0.52477 0.99785,0.13125 0.18385,-0.32853 0.57723,-0.42396 1.67973,-0.4075 0.79182,0.0118 1.86911997,-0.0513 2.39400997,-0.14031 0.67565,-0.11456 1.13924003,-0.0407 1.58750003,0.25304 0.58627,0.38414 0.68057,0.38379 1.27351,-0.005 1.40439,-0.92019 3.97133,0.2327 3.90873,1.75553 -0.0171,0.41521 -0.0835,0.34765 -0.26043,-0.26497 -0.40209,-1.392 -2.14334,-1.97787 -3.60797,-1.21395 -0.63678,0.33213 -0.78465,0.32885 -1.33166,-0.0296 -0.43151,-0.28273 -0.90045003,-0.35456 -1.56968003,-0.24043 -0.52489,0.0895 -1.56327997,0.15223 -2.30752997,0.13936 -1.16352,-0.0201 -1.37239,0.05 -1.49013,0.50025 -0.17202,0.65782 -0.19208,0.65599 -1.19534,-0.10924 -1.5863,-1.20993 -3.61177,-1.15168 -4.99853,0.14374 l -0.81857,0.76466 -0.66012,-0.61472 c -0.96677,-0.90027 -1.64278,-1.18479 -2.81504,-1.18479 -1.10249,0 -2.22927,0.45761 -2.78979,1.13301 -0.30171,0.36353 -0.36545,0.34594 -0.62929,-0.17376 -0.20713,-0.40797 -0.47681,-0.55568 -0.91579,-0.5016 -0.34222,0.0422 -1.3282,0.0686 -2.19106,0.0587 -1.36343,-0.0156 -1.59034,0.0497 -1.73294,0.49901 l -0.16409,0.51701 -0.75546,-0.53793 c -1.08777,-0.77456 -2.56141,-0.90876 -3.807728,-0.34675 -0.603769,0.27226 -1.097029,0.36497 -1.197727,0.22512 -0.09417,-0.13077 -0.399809,-0.3643 -0.679209,-0.51894 -0.2794,-0.15464 -0.566272,-0.61184 -0.637494,-1.016 -0.117371,-0.66603 -0.224381,-0.73483 -1.143,-0.73483 -0.890902,0 -1.022959,0.0768 -1.091646,0.635 -0.04298,0.34925 -0.372484,0.88 -0.732239,1.17944 -0.615096,0.51198 -0.708419,0.52175 -1.565196,0.16376 -1.443761,-0.60324 -2.946593,-0.31186 -4.07511,0.7901 l -0.942568,0.92039 -0.557957,-0.75467 c -0.702155,-0.94972 -2.181928,-1.42722 -3.517788,-1.13513 -0.53735,0.11749 -1.662801,0.218 -2.501001,0.22336 l -1.523999,0.01 -0.390947,1.143 c -0.63259,1.84949 -0.652755,1.89085 -0.798731,1.63849 z m -23.98705,-0.83562 c -0.901041,-0.75302 -0.981027,-1.47536 -0.239471,-2.16261 0.35816,-0.33194 0.6512,-0.77051 0.6512,-0.97461 0,-0.68518 1.196284,-1.52974 2.351193,-1.65992 1.443986,-0.16276 2.08107,0.38456 1.854353,1.59306 -0.152233,0.81147 -0.139597,0.82413 0.931564,0.93347 0.59724,0.061 1.392112,0.008 1.766386,-0.11828 0.446365,-0.15029 0.865754,-0.12998 1.218939,0.059 0.403563,0.21598 0.765434,0.21325 1.444617,-0.0109 1.241227,-0.40964 2.728046,-0.16151 3.763177,0.62802 l 0.865213,0.65993 0.938723,-0.63704 c 0.516298,-0.35036 1.065649,-0.63356 1.22078,-0.62931 0.15513,0.004 0.05345,0.13385 -0.225946,0.288 -0.2794,0.15415 -0.822863,0.57262 -1.207696,0.92994 l -0.699696,0.64968 -0.866059,-0.83942 c -1.051425,-1.01909 -2.597988,-1.29241 -3.999463,-0.70684 -0.817982,0.34177 -0.956988,0.34116 -1.303904,-0.006 -0.302341,-0.30234 -0.549887,-0.33198 -1.118113,-0.1339 -0.67993,0.23703 -3.032859,0.17969 -3.877028,-0.0945 -0.270559,-0.0879 -0.201929,-0.20557 0.25175,-0.43176 1.196249,-0.59638 0.82886,-1.94918 -0.529355,-1.94918 -1.198876,0 -2.022364,0.45842 -2.392539,1.33188 -0.192793,0.45492 -0.587314,1.02602 -0.876714,1.26913 -0.676952,0.56867 -0.662594,0.78162 0.108819,1.61399 0.896711,0.96757 0.88181,1.1605 -0.03073,0.39787 z m -7.288884,-2.1587 c -0.641929,-2.03643 -0.598124,-2.20017 0.588614,-2.20017 0.760964,0 1.016,0.10176 1.016,0.4054 0,0.65797 -0.781381,3.1506 -0.987637,3.1506 -0.104275,0 -0.381915,-0.61012 -0.616977,-1.35583 z m 14.634734,-10.94114 c -0.111717,-0.19743 -0.546021,-0.39745 -0.965121,-0.4445 -0.761379,-0.0855 -0.891058,-0.40175 -0.60784,-1.48253 0.06775,-0.25855 -0.124662,-0.40684 -0.59866,-0.46137 -0.467169,-0.0538 -0.6985,-0.22853 -0.6985,-0.52771 0,-0.4173 1.027502,-3.15428 1.560053,-4.15554 0.13638,-0.25641 0.235945,-5.15592 0.234495,-11.53943 -0.0018,-7.32274 0.08743,-11.20219 0.262093,-11.41264 0.183774,-0.22144 0.18163,-0.47389 -0.007,-0.82638 -0.518985,-0.96974 -0.329776,-3.13144 0.363375,-4.1515 0.34925,-0.51397 0.650047,-1.31202 0.668437,-1.77346 l 0.03344,-0.83898 0.166972,0.889 c 0.13937,0.74204 0.04986,1.02693 -0.541436,1.72334 -0.601348,0.70825 -0.708409,1.06142 -0.708409,2.33688 0,1.13093 0.103436,1.56043 0.418219,1.73659 0.3818,0.21367 0.383496,0.28362 0.01948,0.80333 -0.34562,0.49344 -0.40245,1.97339 -0.426575,11.10898 -0.02017,7.63436 0.05306,10.63717 0.265623,10.89329 0.459695,0.5539 3.428604,0.48253 3.781773,-0.0909 0.247025,-0.4011 0.266863,-0.39251 0.203136,0.088 -0.03884,0.29286 0.06054,0.69291 0.220848,0.889 0.16031,0.19608 0.667876,1.25651 1.12792,2.35651 0.808007,1.93198 0.820197,2.01187 0.358468,2.3495 -0.26289,0.19223 -0.6204,0.34951 -0.794466,0.34951 -0.219842,0 -0.27243,0.27146 -0.17222,0.889 0.138092,0.85096 0.111572,0.889 -0.619867,0.889 -0.420273,0 -0.906424,0.17145 -1.080335,0.381 -0.173911,0.20955 -0.415387,0.381 -0.536616,0.381 -0.121226,0 -0.02469,-0.2286 0.214552,-0.508 0.248653,-0.29041 0.749284,-0.508 1.16878,-0.508 0.701084,0 0.726379,-0.0397 0.567043,-0.889 -0.123901,-0.66045 -0.07835,-0.889 0.177185,-0.889 0.189179,0 0.543461,-0.14588 0.787293,-0.32418 0.414577,-0.30314 0.38732,-0.45553 -0.420225,-2.3495 l -0.863559,-2.02532 -2.159389,-0.0728 c -2.456063,-0.0828 -2.343563,-0.15652 -3.335488,2.18507 -0.850658,2.00811 -0.848499,2.27958 0.01893,2.37939 0.496623,0.0571 0.680148,0.20883 0.634999,0.52487 -0.03493,0.24447 -0.09208,0.64452 -0.127,0.889 -0.04549,0.31846 0.139858,0.4678 0.653675,0.52667 0.778697,0.0892 1.994496,1.06083 1.327447,1.06083 -0.202609,0 -0.459784,-0.16154 -0.5715,-0.35897 z m 13.154296,0.005 c -0.196685,-0.23698 -0.0065,-0.8628 0.709356,-2.3344 0.537944,-1.10584 2.788424,-5.72536 5.001069,-10.26561 3.554064,-7.29278 4.041886,-8.44744 4.185107,-9.906 l 0.16212,-1.651 0.03997,1.44539 c 0.03782,1.36791 -0.142631,1.82522 -3.366831,8.5321 -1.873735,3.8977 -4.102585,8.47475 -4.953,10.17121 -1.557977,3.10798 -1.798761,3.8543 -1.2435,3.8543 0.166487,0 2.792123,-1.3716 5.834746,-3.048 l 5.532038,-3.048 h 1.902366 1.902366 l 5.428838,3.048 c 2.985859,1.6764 5.562059,3.048 5.724889,3.048 0.49949,0 0.33764,-0.5339 -1.001,-3.302 -0.709364,-1.46685 -2.87942,-6.00673 -4.82235,-10.08862 l -3.532598,-7.42164 0.04527,-2.23037 0.04527,-2.23037 0.148275,2.413 0.148275,2.413 4.759459,9.93662 c 2.617701,5.46514 4.759459,10.12286 4.759459,10.3505 0,0.22763 -0.20003,0.41366 -0.4445,0.41339 -0.24448,-2.6e-4 -2.893351,-1.37187 -5.886388,-3.048 l -5.441889,-3.04751 h -1.867895 -1.867898 l -5.40721,3.00298 c -6.240282,3.46563 -6.139952,3.41939 -6.493802,2.99303 z m 43.005804,2e-5 c -0.0747,-0.19469 0.2834,-1.18646 0.79579,-2.20394 0.84766,-1.68322 0.90641,-1.93177 0.65176,-2.75753 -0.15393,-0.49916 -0.30843,-1.42191 -0.34333,-2.05056 l -0.0634,-1.143 -5.28748,-0.0687 c -5.00904,-0.0651 -5.28325,-0.0938 -5.207,-0.54489 0.0752,-0.44515 4.67055,-5.65822 8.71324,-9.88458 l 1.78124,-1.86217 0.127,-8.29783 c 0.1213,-7.92485 0.15202,-8.34458 0.68354,-9.33788 0.9492,-1.77386 2.95854,-3.20898 3.94106,-2.81481 0.18062,0.0725 0.031,0.14077 -0.33253,0.1518 -1.42063,0.0431 -3.24618,1.8784 -3.77999,3.80018 -0.14419,0.51907 -0.25963,4.28964 -0.26532,8.66588 l -0.0101,7.747 -5.32534,5.78438 c -2.92893,3.18141 -5.32534,5.89372 -5.32534,6.02735 0,0.1446 2.13367,0.27075 5.2705,0.31161 l 5.2705,0.0687 0.078,1.51996 c 0.0461,0.89874 0.23426,1.69268 0.46039,1.94255 0.34424,0.38039 0.27673,0.6328 -0.67612,2.52794 -0.99641,1.98177 -1.03177,2.12494 -0.60234,2.43895 0.42182,0.30845 0.42323,0.3336 0.0187,0.3336 -0.24064,0 -0.49865,-0.15929 -0.57335,-0.35398 z m 5.31624,0.0355 c 0.40223,-0.29412 0.35887,-0.47709 -0.56649,-2.39062 -0.55113,-1.13968 -0.93484,-2.13936 -0.85269,-2.22151 0.26896,-0.26895 4.63670997,-0.16443 4.63670997,0.11096 0,0.14319 -0.40005,1.05474 -0.88899997,2.02566 -0.95524,1.89687 -1.0701,2.42459 -0.5715,2.62578 0.18968,0.0765 0.13855,0.13619 -0.127,0.14817 -0.6823,0.0308 -0.54899,-0.80113 0.4445,-2.77395 0.48895,-0.97092 0.88899997,-1.82532 0.88899997,-1.89866 0,-0.0733 -0.91439997,-0.13334 -2.03199997,-0.13334 -1.21832,0 -2.032,0.10425 -2.032,0.26034 0,0.14318 0.40762,1.06975 0.90581,2.05902 0.92368,1.83419 0.97643,2.50664 0.19662,2.50664 -0.41299,0 -0.4131,-0.0179 -0.002,-0.3185 z m 6.45603,0.15027 c 0.48157,-0.19431 0.39736,-0.56856 -0.59245,-2.63294 -0.71688,-1.49517 -0.85161,-1.99142 -0.635,-2.33889 0.15123,-0.24258 0.27495,-1.11618 0.27495,-1.94133 0,-1.13374 0.0982,-1.53794 0.40178,-1.65444 0.22097,-0.0848 2.62127,-0.15418 5.334,-0.15418 3.77745,0 4.93178,-0.0743 4.93034,-0.3175 -0.001,-0.17462 -2.39557,-2.92104 -5.32117,-6.10315 l -5.31928,-5.78566 -0.0763,-8.31134 c -0.0662,-7.20588 -0.13302,-8.41476 -0.50251,-9.08879 -0.66714003,-1.21704 -1.99613003,-2.37629 -2.92373,-2.55031 -0.46569,-0.0874 -0.90386,-0.25132 -0.97372,-0.36435 -0.25346,-0.41011 1.80486997,0.32902 2.61146997,0.93776 0.45531,0.34362 1.08396,1.10392 1.39700003,1.68955 0.55076,1.03038 0.57163,1.33111 0.64593,9.30591 l 0.0768,8.24112 1.60801,1.79188 c 0.88441,0.98553 3.27874,3.5986 5.32073,5.80682 2.10172,2.27281 3.7127,4.22687 3.7127,4.50335 0,0.46398 -0.26361,0.49184 -5.2705,0.55706 l -5.2705,0.0687 -0.0683,1.397 c -0.0376,0.76835 -0.19054,1.63696 -0.33995,1.93025 -0.22187,0.43552 -0.1046,0.865 0.63979,2.34316 1.01468,2.0149 1.15295,2.84948 0.46695,2.81853 -0.26554,-0.012 -0.31667,-0.0716 -0.127,-0.14816 z m 82.5027,-0.4064 c -0.20708,-0.31605 -0.55221,-1.33225 -0.76696,-2.25822 -0.4754,-2.04986 -1.16508,-7.78537 -1.12524,-9.3576 0.016,-0.62951 0.1866,0.45564 0.37921,2.41144 0.62717,6.36838 1.42819,9.64543 2.31749,9.48105 0.7461,-0.13791 1.29019,-1.6877 1.81263,-5.16305 0.27302,-1.8161 0.50298,-2.90195 0.51104,-2.413 0.0235,1.42591 -0.87259,6.15713 -1.33584,7.05295 -0.50271,0.97214 -1.24955,1.07482 -1.79233,0.24643 z m -149.552232,-0.0751 c -0.243881,-0.24389 0.106995,-1.15391 0.40688,-1.05529 0.4332,0.14247 0.513509,1.19699 0.09116,1.19699 -0.195984,0 -0.420101,-0.0638 -0.49804,-0.1417 z m 56.016792,-0.1758 c 0.0738,-0.17463 0.51032,-1.1513 0.97016,-2.17038 0.70082,-1.55314 0.78625,-1.93266 0.52808,-2.34606 -0.1694,-0.27124 -0.308,-1.05687 -0.308,-1.74584 0,-2.18244 0.3291,-2.05622 -5.36117,-2.05622 -3.4017,0 -5.05283,-0.0883 -5.05283,-0.27025 0,-0.14863 1.91509,-2.34891 4.25575,-4.8895 2.34066,-2.54059 4.68381,-5.10536 5.207,-5.69949 l 0.95125,-1.08023 v -8.04707 c 0,-7.65856 0.0258,-8.10034 0.53401,-9.15018 1.66172,-3.43266 5.5762,-3.42096 7.41314997,0.0222 0.53412003,1.00114 0.56457003,1.41347 0.68736003,9.30834 l 0.12848,8.26079 5.08,5.53551 c 2.794,3.04453 5.08,5.61368 5.08,5.70921 0,0.0955 -2.286,0.23085 -5.08,0.3007 l -5.08,0.127 -0.13319,1.524 c -0.0733,0.8382 -0.29942,1.779 -0.50259003,2.09068 -0.3387,0.5196 -0.29071,0.72567 0.57770003,2.4807 0.52089,1.05271 0.94708,2.02643 0.94708,2.16382 0,0.14414 -0.91321,0.2498 -2.15900003,0.2498 -1.18745,0 -2.15899997,-0.10467 -2.15899997,-0.23259 0,-0.12793 0.42056,-1.16578 0.93457997,-2.30634 0.77592,-1.72169 0.87294,-2.11276 0.5715,-2.30352 -0.57125,-0.36151 -4.95336997,-0.29487 -5.25742997,0.0799 -0.1826,0.22509 0.0229,0.92224 0.70618,2.39538 0.53006,1.14284 0.89867,2.14296 0.81913,2.2225 -0.0795,0.0795 -1.10935,0.14462 -2.28847,0.14462 -1.61725,0 -2.1109,-0.078 -2.00973,-0.3175 z m 2.82047,-0.34468 c 0.22098,-0.0848 0.40177,-0.30802 0.40177,-0.49605 0,-0.67378 -0.5975,-1.63577 -1.016,-1.63577 -0.42018,0 -1.016,0.9628 -1.016,1.64178 0,0.53276 0.85173,0.78878 1.63023,0.49004 z m -1.11834,-0.67132 c 0.002,-0.17463 0.11644,-0.48895 0.254,-0.6985 0.22232,-0.33867 0.2779,-0.33867 0.50023,0 0.39907,0.60793 0.29862,1.016 -0.25012,1.016 -0.2794,0 -0.50625,-0.14288 -0.50411,-0.3175 z m 0.75811,-0.1905 c 0,-0.1397 -0.1143,-0.254 -0.254,-0.254 -0.1397,0 -0.254,0.1143 -0.254,0.254 0,0.1397 0.1143,0.254 0.254,0.254 0.1397,0 0.254,-0.1143 0.254,-0.254 z m 6.92246,0.6985 c 0.36818,-0.2813 0.37511,-0.41163 0.0608,-1.143 -0.44548003,-1.03666 -1.01040003,-1.05335 -1.53170003,-0.0453 -0.3148,0.60875 -0.33731,0.85998 -0.10242,1.143 0.37124,0.44732 1.02256,0.46605 1.57331003,0.0453 z m -1.33446003,-0.39596 c 0,-0.113 0.15641,-0.41935 0.34757,-0.68077 0.33732,-0.46132 0.35577,-0.45999 0.62606,0.0451 0.15318,0.28621 0.20632,0.59256 0.1181,0.68078 -0.23251,0.23252 -1.09173,0.19706 -1.09173,-0.0451 z m 0.762,-0.31753 c 0,-0.14795 -0.1143,-0.19835 -0.254,-0.11201 -0.32547,0.20115 -0.32547,0.381 0,0.381 0.1397,0 0.254,-0.12105 0.254,-0.26899 z m -0.048,-4.26798 c 0.22042,-0.13978 0.3063,-0.63224 0.254,-1.45661 l -0.079,-1.24542 -3.40925997,-0.0712 c -2.55697,-0.0534 -3.46085,0.0101 -3.61561,0.254 -0.3133,0.49372 -0.25386,2.08884 0.0907,2.43338 0.35339,0.35338 6.21984997,0.42788 6.75920997,0.0858 z m -6.50710997,-1.36853 0.0781,-1.0795 h 3.02684 c 2.47495997,0 3.04578997,0.0695 3.13083997,0.381 0.0795,0.29119 0.0497,0.30403 -0.12641,0.0545 -0.1694,-0.24007 -0.96479,-0.30733 -3.00383997,-0.254 l -2.77343,0.0725 -0.079,0.81755 -0.079,0.81756 3.127,0.08 3.12699997,0.08 -3.25309997,0.0549 -3.25311,0.0549 z m -1.1919,-6.90034 c 0,-3.03336 -0.0915,-4.58133 -0.27437,-4.64229 -0.34586,-0.11529 -8.23463,8.47735 -8.23463,8.96936 0,0.30305 0.70308,0.35154 4.2545,0.29341 l 4.2545,-0.0696 z m -8.001,4.21411 c 0,-0.11535 0.27087,-0.46419 0.60193,-0.7752 l 0.60192,-0.56548 0.14783,0.56528 c 0.0813,0.31091 0.0894,0.65975 0.0181,0.77521 -0.16898,0.2734 -1.36976,0.27357 -1.36976,1.9e-4 z m 1.016,-0.44026 c 0,-0.2178 -0.1143,-0.32535 -0.254,-0.23901 -0.32865,0.20311 -0.32865,0.635 0,0.635 0.1397,0 0.254,-0.1782 0.254,-0.39599 z m 5.97156,0.40013 c -0.0877,-0.14198 -0.0953,-0.36213 -0.0167,-0.48922 0.0785,-0.12709 0.0731,-0.41284 -0.0122,-0.635 -0.12801,-0.33366 -0.61784,-0.40392 -2.81597,-0.40392 -1.50168,0 -2.6241,-0.10126 -2.57632,-0.23243 0.13574,-0.37263 5.6532,-6.36605 5.86316,-6.36895 0.2785,-0.004 0.2335,8.06882 -0.0459,8.24153 -0.13005,0.0804 -0.30825,0.03 -0.396,-0.11201 z m 0.37276,-4.63964 -0.006,-3.1115 -2.63788,2.794 c -1.45083,1.5367 -2.56164,2.87507 -2.46845,2.97416 0.0932,0.0991 1.25421,0.21824 2.58006,0.26478 1.32585,0.0465 2.43921,0.10835 2.47414,0.13734 0.0349,0.029 0.0609,-1.34746 0.0578,-3.05878 z m 8.51467997,0.0635 v -4.953 l -3.40925997,-0.0712 c -2.55697,-0.0534 -3.46085,0.0101 -3.61561,0.254 -0.23949,0.3774 -0.29079,8.84684 -0.0573,9.45538 0.13544,0.35294 0.62954,0.39912 3.6195,0.33827 l 3.46264997,-0.0705 z m -6.56165997,4.65666 c -0.0931,-0.0931 -0.16934,-2.2055 -0.16934,-4.69416 0,-5.30364 -0.34776,-4.85396 3.66241,-4.73576 1.98013997,0.0584 2.54154997,0.15581 2.62283997,0.45526 0.0791,0.29126 0.0492,0.30409 -0.12698,0.0545 -0.1694,-0.24007 -0.96479,-0.30733 -3.00383997,-0.254 l -2.77343,0.0725 -0.0694,4.52352 -0.0694,4.52353 3.0544,-0.0785 c 1.67992,-0.0432 3.05418997,0.007 3.05391997,0.11198 -5e-4,0.23541 -5.94652997,0.25577 -6.18113997,0.0212 z m 16.04179,0.0542 c -0.10381,-0.46663 -8.02084,-9.02885 -8.34849,-9.02885 -0.14544,0 -0.24264,1.88242 -0.24264,4.699 v 4.699 h 4.33663 c 3.66123,0 4.32383,-0.0575 4.2545,-0.36915 z m -8.16779,-0.0542 c -0.25557,-0.25557 -0.20332,-8.21266 0.0539,-8.21266 0.25864,0 5.87273,6.11632 5.87273,6.39809 0,0.10347 -1.17157,0.22071 -2.6035,0.26052 l -2.6035,0.0724 -0.0796,0.8255 c -0.0768,0.79677 -0.28552,1.01072 -0.64007,0.65616 z m 3.05646,-1.86266 c 1.29921,0 2.3615,-0.0857 2.36065,-0.1905 -0.002,-0.21725 -4.81128,-5.47983 -5.12625,-5.60917 -0.11341,-0.0466 -0.2062,1.37647 -0.2062,3.1623 0,2.52542 0.0677,3.17923 0.3048,2.94217 0.19337,-0.19337 1.1684,-0.3048 2.667,-0.3048 z m 3.1242,1.27 c 0,-0.87372 0.2492,-0.96097 0.84964,-0.2975 0.6001,0.6631 0.5198,1.0595 -0.21464,1.0595 -0.53622,0 -0.635,-0.11854 -0.635,-0.762 z m 1.016,0.4121 c 0,-0.0528 -0.17145,-0.23819 -0.381,-0.4121 -0.31204,-0.25897 -0.381,-0.24162 -0.381,0.0959 0,0.22665 0.17145,0.4121 0.381,0.4121 0.20955,0 0.381,-0.0432 0.381,-0.0959 z M 0.65778397,160.30894 c 0.065,-7.71583 0.0493,-8.01363 -0.47918,-9.10532 -1.01167,-2.08983 -3.43643997,-2.77786 -5.03862997,-1.42971 -1.63299,1.37407 -1.65321,1.48844 -1.74213,9.85316 -0.0444,4.17857 -0.0129,7.86795 0.0701,8.19862 0.15065,0.60021 0.15675,0.6011 3.63677,0.53059 l 3.48586997,-0.0706 z m -6.62120997,7.68801 c -0.0973,-0.0973 -0.17697,-3.67442 -0.17697,-7.94909 0,-7.07652 0.0421,-7.85134 0.47031,-8.65717 0.5239,-0.98587 1.88072,-2.02804 2.64037,-2.02804 1.46683,0 3.26834997,1.86717 3.21926997,3.33659 -0.0213,0.63916 -0.0989,0.50482 -0.33866,-0.58651 -0.23012,-1.04756 -1.34362997,-2.20486 -2.29273997,-2.38292 -1.16374,-0.21832 -2.30532,0.42754 -2.93405,1.65996 -0.47834,0.93762 -0.5105,1.48928 -0.5105,8.75777 v 7.75712 h 2.90413 2.90412997 l 0.11714,-0.6985 c 0.11129,-0.66368 0.1153,-0.66051 0.0804,0.0635 l -0.0368,0.762 -2.93452997,0.0711 c -1.614,0.0391 -3.01417,-0.009 -3.1115,-0.10583 z m 91.41271,19.67858 c -1.00531,-2.42776 -1.8366,-11.43445 -2.25851,-24.46987 l -0.30417,-9.39801 -5.39643,-0.0685 -5.39643,-0.0685 -19.87657,12.50009 c -23.30206,14.65434 -23.53687,14.79993 -23.6522,14.66487 -0.0488,-0.0571 9.23898,-18.79191 20.63947,-41.63287 l 20.72816,-41.528995 0.12911,-23.368 c 0.12872,-23.296978 0.13081,-23.372457 0.68703,-24.834926 1.64942,-4.336795 4.19061,-7.308729 7.74933,-9.062864 4.67133,-2.302551 9.34539,-2.336741 13.91353,-0.101774 2.6787,1.31056 5.67681,4.316746 6.92988,6.948564 1.725526,3.624093 1.706106,3.305772 1.706106,27.97382 v 22.15324 l 2.44528,4.844965 c 1.34491,2.66474 3.56011,7.01667 4.92266,9.67097 1.36256,2.6543 5.87631,11.51255 10.03056,19.685 4.15425,8.17245 8.55371,16.8021 9.77658,19.177 1.22287,2.3749 4.36849,8.54711 6.99026,13.71601 2.62178,5.1689 5.55118,10.90954 6.50977,12.75699 0.95859,1.84745 1.74289,3.41908 1.74289,3.4925 0,0.33678 -0.65374,0.0233 -2.96918,-1.42394 -2.6997,-1.68738 -18.60239,-11.5507 -27.00282,-16.74796 -2.86385,-1.77183 -7.25666,-4.49301 -9.7618,-6.04705 l -4.554796,-2.82555 h -5.02218 -5.02219 l -0.1258,0.8255 c -0.0692,0.45403 -0.18549,4.25451 -0.25845,8.44551 -0.14964,8.59539 -0.44427,13.45135 -1.16356,19.177 -0.73615,5.85995 -1.34791,7.44894 -2.13553,5.54687 z m -32.2157,-25.90476 c 9.04476,-6.02794 16.52936,-11.08571 16.63245,-11.2395 0.10309,-0.15379 0.16024,-9.99512 0.127,-21.86962 -0.0454,-16.20701 -0.13409,-21.59 -0.35584,-21.59 -0.34629,0 -0.43204,0.16364 -11.84519,22.606 -4.83106,9.4996 -11.6958,22.98469 -15.25499,29.96687 -3.55919,6.98218 -6.41684,12.7829 -6.35034,12.8905 0.0665,0.1076 0.22913,0.19564 0.3614,0.19564 0.13227,0 7.64075,-4.93195 16.68551,-10.95989 z m -16.44798,10.14388 c 0,-0.11958 13.32799,-26.3172 28.5629,-56.1435 2.19423,-4.29577 4.03757,-7.8105 4.0963,-7.8105 0.0587,0 0.10505,0.31433 0.10291,0.6985 -0.002,0.41896 -0.0814,0.57653 -0.19763,0.39373 -0.11724,-0.18445 -2.62366,4.47869 -6.34837,11.811 -3.38505,6.66368 -7.95982,15.65907 -10.16616,19.98977 -12.89349,25.30802 -15.56528,30.60701 -15.43232,30.60701 0.28216,0 31.51549,-20.88528 31.83087,-21.28484 0.18848,-0.2388 0.3175,-0.27972 0.3175,-0.10072 0,0.26486 -31.4939,21.45975 -32.4096,21.81114 -0.19602,0.0752 -0.3564,0.088 -0.3564,0.0284 z m 99.059986,0.59954 c 0,-0.19925 -6.60463,-12.93141 -24.46078,-47.15454 -9.3785,-17.97484 -9.65783,-18.49358 -10.02113,-18.61004 -0.25455,-0.0816 -0.30581,4.32264 -0.254,21.82294 l 0.0649,21.92517 16.99326,11.11647 c 9.34629,6.11406 17.14727,11.11647 17.3355,11.11647 0.18823,0 0.34224,-0.0974 0.34224,-0.21647 z m -17.63272,-11.33448 c -9.06935,-5.93119 -16.58283,-10.9307 -16.69661,-11.11002 -0.27553,-0.43424 -0.2755,-42.04145 3e-5,-42.21174 0.11808,-0.073 2.19453,3.6636 4.61432,8.30351 2.4198,4.63991 6.99392,13.40824 10.16471,19.48519 12.79455,24.52126 18.78828,36.06674 18.78828,36.19109 0,0.072 -0.0857,0.1298 -0.1905,0.12843 -0.10477,-0.001 -7.61088,-4.85527 -16.68023,-10.78646 z m 16.36273,10.16811 c 0,-0.062 -1.98491,-3.91968 -4.41092,-8.5725 -2.42601,-4.65281 -8.61308,-16.51782 -13.74906,-26.36667 -5.13597,-9.84885 -10.40418,-19.9644 -11.70713,-22.479 -1.30295,-2.5146 -2.54214,-4.8006 -2.75377,-5.08 -0.34456,-0.4549 -0.37889,1.66896 -0.32845,20.32 l 0.0563,20.828 2.667,1.78113 c 1.46685,0.97963 5.46518,3.60853 8.88516,5.842 3.41999,2.23348 9.53504,6.25131 13.589,8.9285 6.91441,4.56621 7.75184,5.0846 7.75184,4.79854 z M 83.170954,140.98065 c 0.47363,-14.59657 1.32954,-23.68624 2.42272,-25.72886 1.3751,-2.5694 2.8815,9.56245 3.17896,25.60186 0.0829,4.4704 0.25539,8.33098 0.3833,8.57905 0.20984,0.40698 0.60984,0.44421 4.09362,0.381 l 3.86105,-0.07 0.0647,-25.73193 c 0.0439,-17.44864 -0.0203,-25.890815 -0.19944,-26.225495 -0.2554,-0.47721 -0.63248,-0.49357 -11.38041,-0.49357 -8.30731,0 -11.19328,0.077 -11.42106,0.3048 -0.23307,0.23307 -0.3048,6.380105 -0.3048,26.119665 0,14.19818 0.0788,25.89367 0.17512,25.98999 0.0963,0.0963 2.12514,0.14395 4.5085,0.10584 l 4.33338,-0.0693 z m -8.93197,8.0623 c -0.0675,-0.17584 -0.0925,-11.72432 -0.0555,-25.6633 0.0588,-22.20202 0.11438,-25.373445 0.44815,-25.584405 0.59841,-0.37822 21.41245,-0.32454 21.7932,0.0562 0.16764,0.16764 0.28764,0.76772 0.26665,1.3335 l -0.0382,1.028695 -0.15234,-1.142995 -0.15236,-1.143 -10.668,-0.0668 c -9.80357,-0.0614 -10.69372,-0.0317 -10.98549,0.36605 -0.24897,0.33942 -0.3175,5.877935 -0.3175,25.657305 v 25.22445 h 3.91583 c 2.89501,0 3.94923,-0.0828 4.04395,-0.3175 0.0765,-0.18967 0.13618,-0.13854 0.14816,0.127 0.0183,0.40569 -0.33554,0.4445 -4.05192,0.4445 -3.03823,0 -4.10311,-0.0812 -4.19465,-0.3197 z m 15.181,-3.6808 0.0564,-4.0005 0.0772,3.8735 0.0772,3.8735 h 3.40472 c 3.32887,0 3.40717,-0.0127 3.51479,-0.5715 0.0944,-0.49 0.11501,-0.47189 0.14467,0.127 l 0.0346,0.6985 h -3.683 -3.683 z m -6.80613,-2.4765 c -2e-4,-3.0734 0.0363,-4.36561 0.0812,-2.87157 0.0448,1.49403 0.045,4.00863 2.5e-4,5.588 -0.0446,1.57936 -0.0813,0.35697 -0.0815,-2.71643 z m 6.59364,-5.715 c 0,-1.74625 0.0406,-2.46062 0.0902,-1.5875 0.0496,0.87313 0.0496,2.30188 0,3.175 -0.0496,0.87313 -0.0902,0.15875 -0.0902,-1.5875 z m -6.35287,-3.175 c -5.1e-4,-1.5367 0.0408,-2.19809 0.0919,-1.46977 0.0511,0.72832 0.0516,1.98563 0.001,2.794 -0.0506,0.80838 -0.0924,0.21247 -0.093,-1.32423 z m 6.09115,-2.286 c -7.7e-4,-1.2573 0.0422,-1.80367 0.0954,-1.21416 0.0533,0.58951 0.0539,1.61821 0.001,2.286 -0.0526,0.66779 -0.0962,0.18546 -0.097,-1.07184 z m -5.84677,-2.413 c 0,-1.04775 0.0448,-1.47637 0.0996,-0.9525 0.0548,0.52388 0.0548,1.38113 0,1.905 -0.0548,0.52388 -0.0996,0.0952 -0.0996,-0.9525 z m 5.58595,-1.905 c -0.001,-0.9779 0.0439,-1.40907 0.1,-0.95816 0.0561,0.45091 0.057,1.25101 0.002,1.778 -0.055,0.52699 -0.10089,0.15806 -0.10202,-0.81984 z m -5.33864,-1.524 c -0.001,-0.8382 0.0448,-1.21172 0.10279,-0.83005 0.058,0.38168 0.0591,1.06748 0.003,1.524 -0.0565,0.45653 -0.10395,0.14425 -0.10538,-0.69395 z m 4.89435,-2.56005 c -0.0979,-1.20601 -0.12476,-2.24591 -0.0598,-2.31088 0.065,-0.065 0.20016,0.86664 0.30042,2.07025 0.10026,1.20361 0.12716,2.2435 0.0598,2.31088 -0.0674,0.0674 -0.20256,-0.86424 -0.30042,-2.07025 z m -4.69021,0.14705 c -0.0302,-1.37503 0.68448,-6.06945 1.15221,-7.56813 0.40441,-1.29582 1.09686,-2.02183 1.62,-1.69851 0.68844,0.42548 1.80536,4.2064 1.74815,5.91775 -0.0126,0.37504 -0.1838,-0.23251 -0.3806,-1.35011 -0.65226,-3.70418 -1.43513,-5.04053 -2.26295,-3.86286 -0.57447,0.81725 -0.88945,2.17071 -1.40142,6.02186 -0.25071,1.88595 -0.46464,3.02895 -0.47539,2.54 z m 13.28538,-30.126165 c 0.35928,-0.13787 0.40177,-1.55858 0.40177,-13.4309 0,-10.90861 -0.0618,-13.32805 -0.34673,-13.56449 -0.24951,-0.20707 -3.50823,-0.26922 -11.6205,-0.22161 l -11.27376,0.0662 -0.066,13.335 c -0.0363,7.33425 -0.0113,13.47788 0.0555,13.6525 0.0947,0.24734 2.58837,0.3175 11.28476,0.3175 6.13976,0 11.34399,-0.0694 11.56497,-0.15417 z m -22.59578,-0.67133 c -0.0669,-0.17462 -0.0919,-6.08965 -0.0555,-13.1445 l 0.0661,-12.827 11.2395,-0.0661 c 10.59174,-0.0623 11.23835,-0.0404 11.21945,0.381 -0.0119,0.26573 -0.072,0.31833 -0.14817,0.12964 -0.0997,-0.24715 -2.57134,-0.3175 -11.15594,-0.3175 h -11.02783 v 12.954 12.954 h 11.03213 11.03212 l 0.10582,-0.6985 c 0.0985,-0.65013 0.10845,-0.64133 0.14387,0.127 l 0.0381,0.8255 h -11.18406 c -8.71299,0 -11.21084,-0.0701 -11.30559,-0.3175 z m 22.86099,-35.877499 c -0.0108,-6.053237 -0.22116,-6.983601 -2.16695,-9.586077 -5.33331,-7.133262 -16.14429,-6.040004 -19.99384,2.021873 l -0.94364,1.976204 -0.0862,5.155059 c -0.0474,2.83528 -0.022,5.32248 0.0565,5.52709 0.12298,0.3205 1.73605,0.36288 11.64323,0.30594 l 11.50048,-0.0661 -0.01,-5.333996 z m -22.8081,5.037669 c -0.0931,-0.0931 -0.16764,-2.06481 -0.16558,-4.381503 0.004,-4.691195 0.33306,-6.657816 1.46348,-8.751253 1.5083,-2.793243 5.05827,-5.338175 7.84341,-5.622849 l 1.23036,-0.125757 -1.40937,0.325189 c -4.40155,1.015593 -7.76372,4.507861 -8.61321,8.946504 -0.16746,0.874956 -0.25883,3.200694 -0.21455,5.461 l 0.0771,3.936999 10.96636,0.0662 c 10.28759,0.0621 10.97358,0.0385 11.08303,-0.381 0.0887,-0.33979 0.12376,-0.30993 0.14614,0.12432 l 0.0295,0.5715 h -11.13367 c -6.12352,0 -11.20987,-0.0762 -11.303,-0.16934 z m 22.11506,-9.228286 c -0.3031,-3.342673 -2.87453,-6.885847 -6.08584,-8.385668 -0.87646,-0.409342 -2.50795,-0.908705 -3.62555,-1.109694 -1.1176,-0.200989 -1.6891,-0.374003 -1.27,-0.384474 1.29136,-0.03226 3.94298,0.708852 5.49405,1.535564 3.00193,1.600013 5.45279,5.162 5.74134,8.344272 0.076,0.837989 0.081,1.523617 0.0112,1.523617 -0.0699,0 -0.18917,-0.685628 -0.26515,-1.523617 z M -51.280047,187.90716 c 0.06967,-0.17463 2.301974,-4.83235 4.960666,-10.3505 l 4.833985,-10.033 -0.206172,-2.794 c -0.19288,-2.61382 -0.157965,-2.99057 0.541384,-5.842 0.937287,-3.82157 2.480289,-9.07486 2.748706,-9.35822 0.232682,-0.24562 1.436317,3.49157 2.713456,8.42509 0.82423,3.18396 0.871706,3.59103 0.799775,6.858 l -0.07647,3.47313 4.633168,9.60995 c 2.548239,5.28548 4.633163,9.7146 4.633163,9.8425 0,0.1279 -0.0737,0.23255 -0.16377,0.23255 -0.0901,0 -2.552379,-1.32634 -5.471782,-2.94741 l -5.308002,-2.94741 -1.957723,0.10955 c -1.956427,0.10947 -1.961202,0.1115 -7.234095,3.07441 -2.902005,1.63067 -5.343108,2.96486 -5.424675,2.96486 -0.08156,0 -0.09129,-0.14288 -0.02161,-0.3175 z m 6.321328,-3.77975 4.338803,-2.57326 -0.154432,-2.06224 c -0.08494,-1.13424 -0.220503,-3.3767 -0.301257,-4.98325 -0.175608,-3.49368 -0.27594,-4.064 -0.714946,-4.064 -0.394866,0 -8.122569,15.65939 -7.903014,16.01464 0.08204,0.13275 0.204714,0.24136 0.272605,0.24136 0.06789,0 2.075901,-1.15797 4.462241,-2.57325 z m -4.107659,1.55549 c 0,-0.3319 7.073881,-14.47624 7.239875,-14.47624 0.06937,0 0.11473,0.42862 0.100805,0.9525 -0.01973,0.74296 -0.06166,0.82472 -0.1905,0.37167 -0.13195,-0.46398 -0.827532,0.74731 -3.457531,6.02098 -1.810791,3.631 -3.234393,6.65977 -3.163555,6.73061 0.07084,0.0708 1.666692,-0.77507 3.546348,-1.8798 l 3.417557,-2.00859 0.148824,-2.10918 0.148823,-2.10919 -0.02182,2.159 -0.02182,2.159 -3.682999,2.21202 c -2.02565,1.21662 -3.768725,2.21674 -3.8735,2.2225 -0.104775,0.006 -0.1905,-0.10461 -0.1905,-0.24528 z m 7.449347,-10.53924 c -0.001,-0.9779 0.04386,-1.40908 0.09997,-0.95817 0.05611,0.45091 0.05703,1.25101 0.002,1.778 -0.05499,0.52699 -0.100894,0.15807 -0.102022,-0.81983 z m 14.648651,11.07233 c 0,-0.59604 -7.696441,-15.78828 -7.955023,-15.70266 -0.35896,0.11885 -0.631492,3.01001 -0.734443,7.79135 l -0.07353,3.41502 4.159138,2.48592 c 3.773466,2.2554 4.603861,2.61801 4.603861,2.01037 z m -4.572764,-2.45439 c -3.72222,-2.21148 -4.055341,-2.47079 -4.055603,-3.15694 -8.1e-5,-0.21669 0.135169,-0.11933 0.313612,0.22576 0.324507,0.62755 6.86073,4.7167 6.987539,4.3715 0.09975,-0.27153 -6.099464,-12.97926 -6.331666,-12.97926 -0.106075,0 -0.232308,0.82867 -0.28052,1.8415 l -0.08766,1.8415 -0.04658,-1.905 c -0.08589,-3.51279 0.144686,-3.25027 3.881285,4.41886 1.897314,3.89412 3.41602,7.18114 3.3749,7.3045 -0.04112,0.12336 -1.73101,-0.75973 -3.755307,-1.96242 z m -3.722162,-5.82394 c 10e-4,-1.1176 0.04558,-1.54321 0.09924,-0.94579 0.05365,0.59742 0.0529,1.51182 -0.0018,2.032 -0.05458,0.52018 -0.09848,0.0314 -0.09756,-1.08621 z m -1.484632,3.1115 c 0.138702,-0.39854 0.835035,-11.27789 1.036401,-16.1925 l 0.150902,-3.683 -1.168817,-4.43625 c -1.097884,-4.16702 -1.460104,-5.12824 -1.803192,-4.78516 -0.0785,0.0785 -0.702144,2.28989 -1.385874,4.91419 l -1.243147,4.77146 0.481289,8.14988 c 0.536517,9.08506 0.688708,11.00727 0.898352,11.34648 0.223876,0.36225 2.904566,0.28705 3.034086,-0.0851 z m -2.751107,-0.10584 c -0.09313,-0.0931 -0.150119,-0.86465 -0.126634,-1.7145 l 0.0427,-1.54516 0.1478,1.524 0.1478,1.524 h 1.055751 c 0.580662,0 1.002543,0.0857 0.937509,0.1905 -0.14637,0.23581 -1.972742,0.25335 -2.204926,0.0212 z m 2.45774,-2.49766 c 0.001,-1.1176 0.04558,-1.54321 0.09924,-0.94579 0.05365,0.59742 0.0529,1.51182 -0.0018,2.032 -0.05458,0.52018 -0.09848,0.0314 -0.09756,-1.08621 z m -2.792324,-2.921 c 0,-1.18745 0.04375,-1.67323 0.09723,-1.0795 0.05347,0.59372 0.05347,1.56527 0,2.159 -0.05348,0.59372 -0.09723,0.10795 -0.09723,-1.0795 z m 3.143377,-3.556 c 0.07212,-2.30505 0.174495,-4.23863 0.2275,-4.29684 0.157645,-0.17312 0.05791,3.74118 -0.158023,6.20184 -0.143495,1.63516 -0.163274,1.0928 -0.06948,-1.905 z m -3.397377,-0.762 c 0,-1.18745 0.04375,-1.67323 0.09723,-1.0795 0.05347,0.59372 0.05347,1.56527 0,2.159 -0.05348,0.59372 -0.09723,0.10795 -0.09723,-1.0795 z m -0.454769,-5.92695 -0.18034,-3.64095 1.060765,-4.16955 c 0.583423,-2.29326 1.155232,-4.26982 1.270691,-4.39236 0.115458,-0.12255 0.327022,0.22035 0.470143,0.762 1.702616,6.44353 2.056478,7.9888 2.02865,8.85881 -0.02928,0.91552 -0.05097,0.87784 -0.219283,-0.381 -0.304122,-2.2746 -2.093788,-8.71753 -2.312787,-8.32621 -0.107434,0.19198 -0.610931,1.99935 -1.11888,4.01639 -0.917608,3.64376 -0.922391,3.69062 -0.74408,7.29057 0.0987,1.99279 0.122313,3.62325 0.05246,3.62325 -0.06985,0 -0.208153,-1.63843 -0.307342,-3.64095 z m 4.261416,0.33895 c 0,-1.04775 0.04483,-1.47638 0.09963,-0.9525 0.0548,0.52387 0.0548,1.38112 0,1.905 -0.0548,0.52387 -0.09963,0.0952 -0.09963,-0.9525 z m -29.898645,22.14937 c -0.06888,-0.11145 -0.01847,-0.36862 0.112009,-0.5715 0.207414,-0.3225 0.267068,-0.3225 0.474482,0 0.251889,0.39165 0.134673,0.77413 -0.237241,0.77413 -0.12321,0 -0.280373,-0.0912 -0.34925,-0.20263 z m 3.699604,-0.24187 c 0.04708,-0.24448 0.196771,-0.4445 0.332646,-0.4445 0.135874,0 0.285564,0.20002 0.332646,0.4445 0.05354,0.27803 -0.07104,0.4445 -0.332646,0.4445 -0.26161,0 -0.386189,-0.16647 -0.332646,-0.4445 z m -2.696505,-0.48698 c -0.08938,-0.23291 -0.07208,-0.5139 0.03845,-0.62442 0.326126,-0.32613 0.863252,0.16213 0.68613,0.6237 -0.207944,0.5419 -0.51679,0.54221 -0.724578,7.7e-4 z m 1.640929,-0.0681 c -0.249273,-0.46577 -0.208656,-0.5244 0.363286,-0.5244 0.718703,0 0.828576,0.29256 0.28065,0.7473 -0.290561,0.24114 -0.419469,0.19652 -0.643936,-0.2229 z m -3.818778,-1.38235 c 0,-0.20059 0.340389,-1.12336 0.75642,-2.05062 l 0.756419,-1.68592 1.84708,0.0747 1.847081,0.0747 0.675226,1.397 c 1.22019,2.52449 1.34372,2.40257 -2.516726,2.48387 -2.788256,0.0587 -3.3655,0.008 -3.3655,-0.29382 z m 204.593567,-7.55384 c -3.63032,-2.25159 -9.74384,-6.04473 -13.58559,-8.4292 -3.84175,-2.38448 -9.55675,-5.93074 -12.7,-7.88058 -3.14325,-1.94985 -7.15578,-4.44321 -8.91674,-5.54081 l -3.201746,-1.99563 h -4.60261 -4.60261 l -0.0789,4.12751 -0.0789,4.1275 0.009,-4.191 0.009,-4.19101 4.699,-0.0624 4.699,-0.0625 10.667996,6.62985 c 34.3001,21.3165 34.67098,21.53995 34.67098,20.8885 0,-0.14853 -3.56749,-7.19987 -12.44561,-24.59945 -8.05692,-15.7902 -10.59425,-20.75958 -20.10201,-39.37001 l -10.25139,-20.065995 -0.13476,-23.368 c -0.14796,-25.658033 -0.0316,-23.906751 -1.817236,-27.355983 -2.36027,-4.55928 -7.08765,-7.766024 -12.27199,-8.324506 -1.59084,-0.171373 -1.64817,-0.195165 -0.54466,-0.226023 1.6751,-0.04684 3.9738,0.57469 6.2482,1.689411 2.63465,1.291287 5.36861,4.027028 6.80963,6.814068 1.900116,3.674976 1.829866,2.608036 1.834066,27.853573 l 0.004,22.54853 2.63226,5.137465 c 2.90412,5.66804 7.57233,14.8298 13.87733,27.23546 2.27202,4.4704 5.12935,10.0711 6.34963,12.446 10.93367,21.27911 20.09351,39.56901 19.97343,39.88191 -0.0796,0.2074 -0.23555,0.3771 -0.34658,0.3771 -0.11104,0 -3.17215,-1.84221 -6.80247,-4.09379 z m -109.715526,3.60043 c -0.0814,-0.13164 9.25068,-19.01972 20.73787,-41.9735 18.75402,-37.47444 20.90247,-41.889695 21.0492,-43.258145 l 0.16342,-1.524 0.0387,1.33381 c 0.0374,1.28835 -0.67116,2.75356 -20.78927,42.989185 -11.4554,22.91047 -20.828,41.82698 -20.828,42.0367 0,0.4585 0.11858,0.47079 0.8422,0.0872 0.30514,-0.16173 10.04586,-6.2597 21.64605,-13.55102 11.60018,-7.29134 21.33674,-13.38836 21.6368,-13.54894 0.61319,-0.32818 10.48477,-0.42371 10.48521,-0.10148 1.4e-4,0.10478 -2.25728,0.16023 -5.0165,0.12323 l -5.01676,-0.0673 -14.605,9.18317 c -8.03275,5.05075 -17.94191,11.28179 -22.02035,13.84678 -4.07844,2.56498 -7.58642,4.66361 -7.79551,4.66361 -0.20909,0 -0.44673,-0.10771 -0.52809,-0.23936 z m -93.100041,-10.68264 v -9.652 h 1.651 1.651 v 9.652 9.652 h -1.651 -1.651 z m 1.143,2.01083 c 0,-1.73096 -0.07251,-2.13783 -0.381,-2.13783 -0.297581,0 -0.397515,0.41188 -0.45643,1.88123 -0.08295,2.06882 0.04006,2.66022 0.520065,2.50022 0.220304,-0.0734 0.317365,-0.75961 0.317365,-2.24362 z m 1.651,0.0212 c 0,-1.86267 -0.07056,-2.286 -0.381,-2.286 -0.308186,0 -0.381,0.40451 -0.381,2.11666 0,1.16417 0.0762,2.19287 0.169334,2.286 0.458643,0.45864 0.592666,-0.02 0.592666,-2.11666 z m -1.678176,-4.71978 c 0.247297,-0.64444 0.16998,-3.7533 -0.103713,-4.17022 -0.434462,-0.66183 -0.74993,0.20597 -0.754222,2.07472 -0.004,1.73283 0.150335,2.49728 0.504111,2.49728 0.109807,0 0.269029,-0.1808 0.353824,-0.40178 z m 1.625593,-2.16184 c -0.04198,-1.20464 -0.185128,-2.13538 -0.328417,-2.13538 -0.276632,0 -0.497185,3.77586 -0.257096,4.40152 0.352003,0.91731 0.655515,-0.25739 0.585513,-2.26614 z m 151.258684,12.97762 c 0,-0.76835 0.0476,-1.08268 0.10581,-0.6985 0.0582,0.38417 0.0582,1.01282 0,1.397 -0.0582,0.38417 -0.10581,0.0699 -0.10581,-0.6985 z m 0.26123,-3.175 c -0.001,-0.9779 0.0439,-1.40908 0.1,-0.95817 0.0561,0.45091 0.057,1.25101 0.002,1.778 -0.055,0.52699 -0.10089,0.15807 -0.10202,-0.81983 z m -150.606642,-3.048 c -5.08e-4,-1.8161 0.03965,-2.59238 0.0891,-1.72507 0.04945,0.86732 0.04981,2.35322 7.62e-4,3.302 -0.049,0.94879 -0.08946,0.23917 -0.08991,-1.57693 z m 145.020692,1.143 c 0,-1.04775 0.0448,-1.47638 0.0996,-0.9525 0.0548,0.52387 0.0548,1.38112 0,1.905 -0.0548,0.52387 -0.0996,0.0952 -0.0996,-0.9525 z m 5.84536,-2.032 c 0,-1.18745 0.0437,-1.67323 0.0972,-1.0795 0.0535,0.59372 0.0535,1.56527 0,2.159 -0.0535,0.59372 -0.0972,0.10795 -0.0972,-1.0795 z m -6.08974,-2.667 c -5.1e-4,-1.5367 0.0408,-2.1981 0.0919,-1.46978 0.0511,0.72833 0.0516,1.98563 0.001,2.794 -0.0506,0.80838 -0.0924,0.21248 -0.093,-1.32422 z m 6.35287,-3.175 c 0,-1.74625 0.0406,-2.46063 0.0902,-1.5875 0.0496,0.87312 0.0496,2.30187 0,3.175 -0.0496,0.87312 -0.0902,0.15875 -0.0902,-1.5875 z m -151.178354,-0.381 c -0.0052,-0.4191 0.04751,-0.6213 0.117091,-0.44934 0.06958,0.17197 0.07381,0.51487 0.0094,0.762 -0.0644,0.24714 -0.121325,0.10644 -0.126502,-0.31266 z m 144.584714,-5.334 c -2e-4,-3.0734 0.0363,-4.36561 0.0812,-2.87158 0.0448,1.49403 0.045,4.00863 2.5e-4,5.588 -0.0446,1.57937 -0.0813,0.35698 -0.0815,-2.71642 z m -125.035992,2.5922 c -0.03632,-1.55763 0.627078,-5.18455 0.898632,-4.913 0.06078,0.0608 -0.03121,0.60783 -0.204442,1.21566 -0.173225,0.60782 -0.391229,2.07669 -0.484452,3.26414 l -0.169496,2.159 z m -19.534186,-0.3062 c -0.0028,-0.5588 0.04689,-0.81731 0.110465,-0.57447 0.06357,0.24285 0.06588,0.70005 0.0051,1.016 -0.06075,0.31596 -0.112771,0.11727 -0.115591,-0.44153 z m 27.664642,-0.2197 c -0.04785,-1.1002 -0.774885,-3.9603 -2.513185,-9.88669 -0.899884,-3.06797 -1.267175,-3.99288 -1.563004,-3.93591 -0.267338,0.0515 -0.779953,1.4618 -1.660751,4.56907 -0.700728,2.47203 -1.320335,4.44831 -1.376906,4.39174 -0.120206,-0.1202 2.204651,-8.42241 2.542387,-9.07902 0.51544,-1.00209 0.9479,-0.4337 1.835938,2.413 1.641736,5.26279 2.976628,10.6441 2.875719,11.59283 l -0.0975,0.91668 z m -27.728695,-1.67031 c 0,-0.41086 0.09041,-0.80289 0.200916,-0.87119 0.110505,-0.0683 0.155148,0.26786 0.09921,0.74701 -0.124622,1.06749 -0.300126,1.1401 -0.300126,0.12418 z m -3.556,-1.02514 c 0,-0.72355 1.103272,-1.37277 1.965228,-1.15643 0.921586,0.2313 1.336772,0.59832 1.336772,1.18167 0,0.41763 -0.205225,0.47691 -1.651,0.47691 -1.47525,0 -1.651,-0.0535 -1.651,-0.50215 z m 3.237405,-0.9041 c -0.431396,-0.57819 -0.42595,-0.61841 0.170884,-1.26241 0.546816,-0.59003 0.600882,-0.60554 0.478436,-0.13731 -0.07592,0.29033 -0.244099,0.59343 -0.373717,0.67354 -0.13822,0.0854 -0.115611,0.29032 0.05467,0.4955 0.159692,0.19241 0.250967,0.45741 0.202834,0.58888 -0.04813,0.13146 -0.288031,-0.0297 -0.533107,-0.3582 z m -3.068071,-1.30309 c -0.334175,-0.33417 -0.16909,-2.76598 0.226068,-3.33015 0.524901,-0.7494 1.638736,-0.73835 2.354323,0.0233 0.697067,0.74199 0.802615,3.07171 0.1505,3.32195 -0.540784,0.20752 -2.519197,0.19654 -2.730891,-0.0152 z m 3.41613,-2.45846 c -0.01621,-0.25783 -0.285227,-0.82797 -0.597827,-1.26698 -0.382159,-0.53669 -0.583057,-1.21525 -0.613212,-2.07121 l -0.04485,-1.27302 0.295712,1.397 c 0.162641,0.76835 0.505201,1.70571 0.76124,2.08302 0.256043,0.3773 0.412176,0.89165 0.346964,1.143 -0.11161,0.43019 -0.120292,0.42949 -0.148028,-0.0118 z m -2.315464,-3.45321 c 0,-0.55056 0.101768,-1.06391 0.226149,-1.14078 0.267162,-0.16512 0.630776,1.5287 0.406181,1.89211 -0.33801,0.54691 -0.63233,0.1972 -0.63233,-0.75133 z m -0.458483,-1.158 c -0.0052,-0.4191 0.04751,-0.62129 0.117092,-0.44933 0.06958,0.17197 0.07381,0.51487 0.0094,0.762 -0.0644,0.24714 -0.121326,0.10643 -0.126502,-0.31267 z m 1.198243,-0.74241 c -0.120836,-0.85634 -0.634978,-1.15294 -0.828828,-0.47814 -0.08227,0.28639 -0.114124,0.22112 -0.08483,-0.17385 0.06473,-0.87286 0.867852,-0.99715 1.076318,-0.16656 0.08721,0.34748 0.109862,0.84085 0.05033,1.09638 -0.07459,0.32018 -0.140794,0.23383 -0.21299,-0.27783 z m -4.54976,-15.89826 c 0,-0.28142 0.398319,-1.49949 0.885153,-2.70682 l 0.885151,-2.19514 0.0141,-14.29085 0.0141,-14.29084 0.624748,-0.920615 c 0.358694,-0.52857 0.637187,-1.32144 0.653959,-1.86184 l 0.02921,-0.94122 0.204168,1.016 c 0.142163,0.70745 0.110467,1.09314 -0.104366,1.27 -0.838421,0.69023 -1.174222,1.563515 -1.174222,3.053715 0,0.84903 0.124259,1.66794 0.276131,1.81981 0.198844,0.19885 0.198844,0.3239 0,0.44679 -0.192657,0.11908 -0.276126,3.87127 -0.276126,12.41292 v 12.24226 l -0.889,2.26448 c -0.976083,2.48631 -1.041958,2.83497 -0.5715,3.0248 0.189672,0.0765 0.138541,0.13619 -0.127,0.14817 -0.282867,0.0128 -0.4445,-0.16601 -0.4445,-0.49162 z m 7.836428,0.17594 c 0.208501,-0.25122 0.05651,-0.90152 -0.603898,-2.58373 -0.485391,-1.2364 -0.873506,-2.42835 -0.862477,-2.64877 0.01709,-0.34158 0.03938,-0.3445 0.150932,-0.0198 0.07199,0.20955 0.530019,1.43324 1.017854,2.71931 0.840549,2.21591 0.906328,2.86869 0.28907,2.86869 -0.186518,0 -0.183881,-0.1039 0.0085,-0.33573 z m 15.431746,-0.066 c -0.0848,-0.22098 -0.154176,-5.08253 -0.154176,-10.80344 v -10.40168 l 0.630169,-1.24357 c 0.346596,-0.68398 0.746646,-1.31557 0.889,-1.40355 0.160924,-0.0995 0.280955,-2.38816 0.31732,-6.05048 l 0.05849,-5.890505 0.07322,5.754045 0.07322,5.75406 -0.830206,1.33513 -0.830207,1.33513 -0.07164,10.68827 c -0.06617,9.87198 -0.03822,10.71271 0.366047,11.00832 0.379065,0.27717 0.383794,0.32004 0.03532,0.32004 -0.221305,0 -0.471752,-0.18079 -0.556547,-0.40177 z m 12.40068,0.003 c 0.349806,-0.34982 0.399143,-1.67946 0.399143,-10.75718 v -10.35803 l -0.660999,-1.24433 c -0.363548,-0.68438 -0.752706,-1.30149 -0.864791,-1.37136 -0.112085,-0.0699 -0.248824,-2.87021 -0.303858,-6.223 -0.115989,-7.065875 -0.234472,-7.551665 -2.293361,-9.402775 -1.667052,-1.49883 -2.189995,-1.61099 -3.615636,-0.77551 -1.370269,0.80303 -2.440333,2.0731 -2.846334,3.37835 -0.163888,0.52689 -0.306763,0.73689 -0.3175,0.46666 -0.03255,-0.81937 0.972236,-2.60503 1.834766,-3.26065 1.30489,-0.99185 2.476124,-1.50699 3.081101,-1.35516 1.170725,0.29384 2.885958,1.90095 3.616379,3.38842 0.717641,1.46146 0.719427,1.47786 0.80696,7.405755 l 0.08773,5.94106 0.801273,1.29794 0.801273,1.29794 0.07587,10.16 c 0.04172,5.588 0.008,10.53148 -0.07501,10.9855 -0.09226,0.50482 -0.30146,0.8255 -0.538508,0.8255 -0.342628,0 -0.341292,-0.0463 0.01151,-0.39914 z m 16.579667,0.0608 c -0.0714,-0.18608 1.80232,-3.61937 4.16383,-7.62954 l 4.29364,-7.29123 -0.006,-8.68997 -0.006,-8.68996 2.08868,-4.254495 c 1.55263,-3.16261 2.20645,-4.2545 2.54756,-4.2545 0.34279,0 0.97243,1.06924 2.48885997,4.22651 L 1.732694,101.68209 v 8.8612 8.8612 l 4.20548,7.13838 c 2.31301,3.92611 4.14539,7.29494 4.07197,7.48629 -0.0734,0.19135 -0.26539,0.34791 -0.42658,0.34791 -0.21515,0 -0.21849,-0.0899 -0.0126,-0.33801 0.21585,-0.26009 -0.68475,-1.98014 -3.9059,-7.45991 l -4.18642,-7.12188 -0.0205,-8.9866 -0.0205,-8.9866 -1.94803003,-3.924685 C -1.581806,95.400805 -2.599336,93.591715 -2.771576,93.539175 c -0.18977,-0.0579 -1.11548,1.52394 -2.3495,4.01478 l -2.03634,4.110295 v 8.76371 8.76371 l -4.191,7.11833 c -2.30505,3.91508 -4.191,7.26512 -4.191,7.44453 0,0.17942 0.14287,0.38386 0.3175,0.45432 0.20049,0.0809 0.16371,0.13551 -0.0998,0.14817 -0.22953,0.011 -0.47575,-0.13219 -0.54715,-0.31826 z m -51.486521,-0.51576 c 0,-0.19034 0.371053,-1.19046 0.824563,-2.2225 l 0.824562,-1.87644 0.127938,-12.446 0.127937,-12.446 h 1.524 1.524 l 0.127,12.573 0.127,12.573 0.8255,1.87644 c 0.454025,1.03204 0.8255,1.97501 0.8255,2.0955 0,0.12048 -1.54305,0.21906 -3.429,0.21906 -2.724822,0 -3.429,-0.0711 -3.429,-0.34606 z m 23.113998,-10.35546 c 0,-10.39797 0.01499,-10.72578 0.528717,-11.557 0.607664,-0.98322 0.695439,-1.01527 1.134841,-0.41435 0.304086,0.41587 0.354282,0.41242 0.876442,-0.0601 0.522161,-0.47255 0.572356,-0.47599 0.876442,-0.0601 0.41001,0.56072 0.809008,0.5614 1.122111,0.002 0.229946,-0.41089 0.281379,-0.40701 0.797563,0.0601 0.52027,0.47083 0.570179,0.47416 0.874326,0.0582 0.177409,-0.24274 0.41166,-0.44125 0.520558,-0.44125 0.108897,0 0.343149,0.19851 0.520558,0.44113 0.304086,0.41587 0.354281,0.41242 0.876442,-0.0601 0.52216,-0.47255 0.572356,-0.47599 0.876442,-0.0601 0.396395,0.5421 0.799107,0.56647 0.993412,0.0601 0.24496,-0.63836 0.634354,-0.43092 1.172984,0.62488 0.490502,0.96147 0.513161,1.47176 0.513161,11.557 v 10.55112 h -5.841999 -5.842 z m 1.71748,-0.19429 c 0.05005,-7.5294 -0.0094,-10.09138 -0.240637,-10.37001 -0.266164,-0.32071 -0.351234,-0.30971 -0.63798,0.0824 -0.257975,0.35281 -0.330863,2.56351 -0.330863,10.03517 0,5.27047 0.07153,9.76909 0.158961,9.99692 0.08743,0.22783 0.344602,0.37852 0.5715,0.33485 0.371033,-0.0714 0.419227,-1.08547 0.479019,-10.07936 z m -0.586253,-0.15319 c 7.7e-5,-5.3086 0.03383,-7.4442 0.075,-4.74578 0.04117,2.69842 0.04111,7.04182 -1.37e-4,9.652 -0.04125,2.61018 -0.07494,0.40238 -0.07486,-4.90622 z m 2.424773,0 c 0,-10.11766 -0.0084,-10.287 -0.508,-10.287 -0.499638,0 -0.508,0.16934 -0.508,10.287 0,10.11767 0.0084,10.287 0.508,10.287 0.499638,0 0.508,-0.16933 0.508,-10.287 z m 1.877824,9.88523 c 0.0848,-0.22098 0.154176,-4.68619 0.154176,-9.9227 0,-9.70107 -0.106147,-10.89924 -0.906714,-10.23483 -0.303746,0.25209 -0.363286,1.93382 -0.363286,10.26107 0,5.47776 0.0762,10.03577 0.169334,10.1289 0.300246,0.30025 0.78805,0.18045 0.94649,-0.23244 z m -0.492597,-9.88523 c 7.6e-5,-5.3086 0.03383,-7.4442 0.075,-4.74578 0.04117,2.69842 0.04111,7.04182 -1.38e-4,9.652 -0.04125,2.61018 -0.07493,0.40238 -0.07486,-4.90622 z m 2.297773,-0.003 c 0,-9.98718 -0.0085,-10.15652 -0.508,-10.15652 -0.498178,0 -0.509288,0.19152 -0.574541,9.9054 -0.0366,5.44796 -0.0084,10.05698 0.06273,10.24227 0.0711,0.18528 0.329644,0.29829 0.574543,0.25113 0.415503,-0.08 0.445267,-0.76467 0.445268,-10.24228 z m -0.519504,0.003 c -7.4e-5,-5.4483 0.0335,-7.71329 0.07461,-5.03332 0.04111,2.67998 0.04116,7.13768 1.29e-4,9.906 -0.04104,2.76833 -0.07467,0.57562 -0.07474,-4.87268 z m 2.363889,0.0936 c 0.05723,-8.67195 0.01402,-10.10304 -0.313291,-10.37468 -0.316339,-0.26254 -0.42275,-0.20181 -0.637886,0.36404 -0.280885,0.73879 -0.372864,19.10174 -0.09925,19.81477 0.08743,0.22783 0.344601,0.37851 0.571499,0.33485 0.371094,-0.0714 0.41921,-1.09003 0.478925,-10.13898 z m -0.586158,-0.0936 c 7.6e-5,-5.3086 0.03383,-7.4442 0.075,-4.74578 0.04117,2.69842 0.04111,7.04182 -1.37e-4,9.652 -0.04125,2.61018 -0.07494,0.40238 -0.07486,-4.90622 z m 2.424772,0.0423 c 0,-5.63457 -0.06832,-10.31299 -0.151833,-10.3965 -0.08351,-0.0835 -0.312108,-0.0903 -0.508,-0.0152 -0.297284,0.11408 -0.356166,1.80483 -0.356166,10.22717 0,5.54977 0.0762,10.16669 0.169334,10.25982 0.09313,0.0931 0.321731,0.16934 0.508,0.16934 0.276623,0 0.338665,-1.87677 0.338665,-10.24466 z m -0.392907,-0.16934 c 0,-5.23875 0.03377,-7.38187 0.07506,-4.7625 0.04128,2.61938 0.04128,6.90563 0,9.525 -0.04128,2.61938 -0.07506,0.47625 -0.07506,-4.7625 z m 18.680901,10.90026 c 0,-0.15166 1.85738,-3.38064 4.1275,-7.1755 l 4.1275,-6.89976 0.127,-9.144 0.127,-9.144 1.70162,-3.403415 c 0.9359,-1.87188 1.79947,-3.50126 1.91906,-3.62085 0.12057,-0.12058 1.00319,1.38833 1.98136997,3.38734 l 1.76395,3.604775 0.127,9.28708 0.12700003,9.28707 4.10045,6.858 c 2.25525,3.7719 4.04873,6.94373 3.98551,7.0485 -0.19251,0.31907 -24.21496,0.23451 -24.21496,-0.0852 z m 11.37104,-0.69844 c 0.24902,-0.15806 0.30661,-1.64012 0.254,-6.53661 l -0.068,-6.33221 -0.84209,-0.0808 c -1.55972,-0.14971 -1.57091,-0.10315 -1.57091,6.53813 0,4.33897 0.0849,6.099 0.3048,6.3189 0.34605,0.34605 1.43993,0.39876 1.92224,0.0926 z m -1.71904,-6.39182 v -6.12818 l 0.8255,0.0796 0.8255,0.0796 v 5.969 5.969 l -0.8255,0.0796 -0.8255,0.0796 z m 1.46527,-0.0635 0.0683,-5.7785 h -0.63977 -0.63977 v 5.85967 5.85967 l 0.5715,-0.0812 c 0.57122,-0.0811 0.57154,-0.084 0.63977,-5.85967 z m 3.84221997,6.31845 c 0.20373,-0.24548 0.26949,-2.18623 0.2216,-6.5405 l -0.0681,-6.19145 h -1.14299997 -1.143 l -0.068,6.33221 c -0.0526,4.89649 0.005,6.37855 0.254,6.53661 0.51029,0.32389 1.62942997,0.2452 1.94651997,-0.13687 z M -1.962366,132.27579 c -0.0682,-0.17779 -0.0932,-2.89242 -0.0555,-6.0325 l 0.0685,-5.70926 0.8255,-0.0796 0.82549997,-0.0796 v 6.11209 6.11209 H -1.068336 c -0.42348,0 -0.82579,-0.14546 -0.89401,-0.32324 z m 1.40997997,-5.77276 v -5.842 h -0.63499997 -0.635 v 5.67267 c 0,3.11997 0.0762,5.74887 0.16934,5.842 0.0931,0.0931 0.37888,0.16933 0.635,0.16933 0.43804997,0 0.46565997,-0.34636 0.46565997,-5.842 z M -3.675046,118.93455 c 0.18894,-0.12008 0.33494,-1.01893 0.381,-2.3456 0.0593,-1.70941 0.15287,-2.15092 0.45566,-2.15092 0.3028,0 0.39633,0.44151 0.45567,2.15092 0.0461,1.32667 0.19206,2.22552 0.381,2.3456 0.46855,0.29781 1.56526997,0.23895 1.90652997,-0.10232 0.42966,-0.42966 0.42966,-9.62874 0,-10.0584 -0.19473,-0.19473 -1.18532997,-0.3048 -2.74319997,-0.3048 -1.55786,0 -2.54846,0.11007 -2.7432,0.3048 -0.21539,0.21539 -0.3048,1.70182 -0.3048,5.06738 0,4.26783 0.0462,4.78948 0.4445,5.02148 0.53007,0.30873 1.34218,0.34177 1.76684,0.0719 z m -1.70334,-5.11542 v -4.8421 h 2.54 2.53999997 l -0.0346,0.6985 c -0.0296,0.59889 -0.0503,0.61701 -0.14466,0.127 -0.10436,-0.54178 -0.22802,-0.5715 -2.37840997,-0.5715 h -2.26834 v 4.572 4.572 h 0.635 c 0.62733,0 0.635,-0.026 0.635,-2.15006 0,-1.89011 0.0614,-2.18294 0.508,-2.42194 0.35595,-0.19049 0.657,-0.19213 1.00579,-0.005 0.422,0.22585 0.509,0.58491 0.5715,2.35844 l 0.0737,2.09202 0.69849997,-0.01 c 0.38418,-0.006 0.6985,0.0875 0.6985,0.20659 0,0.11913 -0.37147,0.18079 -0.82549997,0.13701 l -0.8255,-0.0796 -0.073,-2.19898 c -0.0749,-2.25337 -0.29351,-2.68455 -1.18741,-2.34153 -0.27796,0.10666 -0.38984,0.69599 -0.4445,2.34153 l -0.073,2.19898 -0.8255,0.0796 -0.8255,0.0796 z m 4.90729997,0.9999 c 0,-0.90805 0.0461,-1.27952 0.10245,-0.8255 0.0563,0.45403 0.0563,1.19698 0,1.651 -0.0564,0.45403 -0.10245,0.0825 -0.10245,-0.8255 z m 0.41747,-7.48187 c 0.59131,-0.71248 0.0133,-0.90013 -2.77257997,-0.90013 -2.10362,0 -2.78348,0.0825 -2.88616,0.35005 -0.26838,0.69938 0.42544,0.91995 2.89367,0.91995 1.84224997,0 2.53500997,-0.0927 2.76506997,-0.36987 z M -4.044886,107.01233 c 0.66358,-0.0523 1.74943,-0.0523 2.413,0 0.66357997,0.0523 0.12065,0.0951 -1.2065,0.0951 -1.32715,0 -1.87007,-0.0428 -1.2065,-0.0951 z m 3.76319997,-1.60023 c 0.40455,-0.21651 0.49157,-0.54169 0.49278,-1.8415 0.001,-1.38291 -0.16175,-1.91701 -1.31537997,-4.309065 -0.89608,-1.85805 -1.45258,-2.7305 -1.74166,-2.7305 -0.29267,0 -0.83164,0.87402 -1.73263,2.80971 -1.10824,2.380955 -1.30781,3.037925 -1.30781,4.305375 0,1.15649 0.10081,1.55438 0.4445,1.75457 0.58384,0.34005 4.52981997,0.34877 5.16019997,0.0114 z M -5.209046,104.9977 c -0.0931,-0.0931 -0.16934,-0.83457 -0.16934,-1.64764 0,-1.25231 0.1835,-1.84771 1.20033,-3.894665 0.66018,-1.329 1.28155,-2.41636 1.38084,-2.41636 0.3331,0 2.49924997,4.886095 2.46423997,5.558505 l -0.0346,0.66449 -0.0972,-0.635 c -0.10953,-0.71579 -2.14497997,-5.079995 -2.36928997,-5.079995 -0.0798,0 -0.62782,0.97323 -1.21775,2.16274 -0.90044,1.815585 -1.07261,2.406745 -1.07261,3.682995 v 1.52026 h 2.26913 2.26912997 l 0.10582,-0.6985 c 0.0985,-0.65013 0.10844,-0.64133 0.14387,0.127 l 0.038,0.8255 H -2.669136 c -1.30387,0 -2.44687,-0.0762 -2.54,-0.16933 z m -37.247755,-1.03717 c 0.005,-5.594255 0.05795,-6.401825 0.481216,-7.333905 0.514507,-1.13301 2.564556,-2.88959 3.372345,-2.88959 1.393817,0 3.527366,2.10621 3.98845,3.93734 0.37245,1.47914 0.380657,12.226725 0.0095,12.456105 -0.148997,0.0921 -0.424424,-0.0425 -0.612062,-0.29914 -0.329803,-0.45104 -0.359592,-0.44988 -0.89504,0.0347 -0.52216,0.47255 -0.572356,0.476 -0.876442,0.0601 -0.410903,-0.56195 -0.804593,-0.56078 -1.142748,0.003 -0.25177,0.42003 -0.286748,0.41827 -0.635419,-0.0319 -0.369994,-0.47765 -1.155403,-0.41825 -1.155403,0.0874 0,0.41402 -0.547355,0.30525 -0.901558,-0.17915 -0.30626,-0.41884 -0.34719,-0.41884 -0.810001,0 -0.268091,0.24261 -0.564167,0.44112 -0.657941,0.44112 -0.09377,0 -0.16799,-2.82892 -0.164922,-6.2865 z m 7.309622,4.4577 c 0.389318,-0.38932 0.426095,-8.39195 0.04186,-9.109895 -0.238183,-0.44504 -0.558457,-0.4913 -3.401824,-0.4913 -2.627945,0 -3.163987,0.0654 -3.293064,0.40178 -0.303347,0.790505 -0.17093,8.877865 0.150624,9.199415 0.202032,0.20203 1.298222,0.3048 3.2512,0.3048 1.952978,0 3.049168,-0.10277 3.2512,-0.3048 z m -6.24156,-4.7117 0.06936,-4.508495 2.413,-0.0745 c 3.882344,-0.11981 3.556,-0.54668 3.556,4.651295 v 4.44016 h -3.05386 -3.053862 z m 5.727001,0 -0.06964,-4.254495 -2.7305,-0.0721 -2.7305,-0.0721 v 4.326585 4.32659 h 2.800142 2.800141 z m 0.260475,-6.207595 c 0.130315,-0.68027 -2.254428,-2.9999 -3.084106,-2.9999 -1.280107,0 -3.487145,2.6912 -2.783827,3.39452 0.09745,0.0974 1.439108,0.14507 2.981459,0.10583 2.395919,-0.061 2.816245,-0.13383 2.886474,-0.50045 z m -5.437388,-0.0584 c -0.19656,-0.51222 0.565376,-1.5702 1.584383,-2.19998 l 0.869549,-0.53741 0.887397,0.67685 c 0.488066,0.37227 1.07603,0.96474 1.306584,1.31661 0.59139,0.90258 0.169024,1.09576 -2.406112,1.10052 -1.584916,0.003 -2.137575,-0.085 -2.241801,-0.35659 z m 4.549434,-0.0554 c 0.25954,-0.25954 -0.812312,-1.58924 -1.61613,-2.00491 -0.714121,-0.36929 -0.768505,-0.35254 -1.757975,0.54139 -1.549387,1.39978 -1.397335,1.62535 1.095609,1.62535 1.164168,0 2.18949,-0.0728 2.278496,-0.16183 z m -25.789212,7.079275 c -0.06451,-0.24671 -0.02873,-0.67533 0.07952,-0.9525 0.149921,-0.38386 0.201076,-0.27698 0.214673,0.44855 0.01913,1.02063 -0.103949,1.23146 -0.294198,0.50395 z m -3.497948,-2.54293 c 0,-1.86944 0.46452,-2.596515 1.658879,-2.596515 0.704383,0 0.941151,0.14131 1.255598,0.749385 0.213136,0.41216 0.387523,1.32656 0.387523,2.032 v 1.28261 h -1.651 -1.651 z m 3.556,-1.42665 c 0,-0.19478 -0.325268,-0.702335 -0.722816,-1.127915 -0.418876,-0.44841 -0.644474,-0.90053 -0.536509,-1.07522 0.102467,-0.1658 0.145128,-0.77266 0.0948,-1.34859 l -0.0915,-1.04714 0.23988,1.1153 c 0.131933,0.61341 0.17775,1.21583 0.101811,1.3387 -0.07594,0.12287 0.15587,0.57273 0.515133,0.99969 0.583519,0.693465 0.866338,1.499305 0.526204,1.499305 -0.06985,0 -0.127,-0.15936 -0.127,-0.35413 z m -2.286,-3.440875 c 0,-1.23943 0.390614,-1.55442 0.604075,-0.48712 0.238694,1.19348 0.194524,1.48813 -0.223075,1.48813 -0.274216,0 -0.381,-0.28055 -0.381,-1.00101 z m -0.355973,-1.7784 c 0.149245,-1.55775 0.243875,-1.79259 0.72234,-1.79259 0.371239,0 0.651744,0.79656 0.626112,1.778 -0.01765,0.67604 -0.0928,0.54977 -0.3401,-0.5715 -0.2387,-1.08227 -0.587713,-0.82963 -0.877215,0.635 l -0.263586,1.3335 z m 49.293304,-14.40792 c -0.34867,-0.34867 -0.14344,-1.16477 0.72815,-2.89552 l 0.89749,-1.78218 -0.83399,-1.57698 c -0.68358,-1.29259 -0.96266,-1.59174 -1.54749,-1.65881 -0.39242,-0.045 -0.77505,-0.24222 -0.85028,-0.43827 -0.0752,-0.19604 0.89513,-2.14435 2.15635,-4.32956 1.96522,-3.40496 2.25934,-4.06201 2.05679,-4.59477 -0.13128,-0.34528 -0.21201,-3.97375 -0.18159,-8.161615 l 0.0548,-7.539965 0.17282,8.001001 c 0.0951,4.400549 0.1937,8.176019 0.21921,8.389919 0.0255,0.21391 -0.9434,2.06724 -2.15313,4.11851 -1.20974,2.05126 -2.12638,3.84793 -2.03699,3.99257 0.0894,0.14465 0.44011,0.263 0.77936,0.263 0.5089,0 0.77302,0.31017 1.50955,1.77272 l 0.89272,1.77272 -0.92917,1.87781 c -1.33043,2.68876 -1.31403,2.70475 2.77433,2.70475 2.1984,0 3.48787,-0.10169 3.67608,-0.28991 0.21722,-0.21721 0.0707,-0.72516 -0.5842,-2.02566 -0.48076,-0.95466 -0.87411,-1.96467 -0.87411,-2.24446 0,-0.88627 1.34492,-3.32309 1.91271,-3.4656 0.2901,-0.0728 1.1458,-0.0971 1.90157,-0.0539 1.33291,0.0762 1.3793,0.10398 1.54666,0.92754 0.0949,0.46697 0.30225,0.97875 0.46079,1.13729 0.45905,0.45905 1.14526,-0.13853 1.29027,-1.12362 l 0.127,-0.8627 H 0.33565397 2.874644 l 0.69357,1.27 c 0.38147,0.6985 0.69625,1.47288 0.69951,1.72084 0.003,0.24796 -0.39794,1.25282 -0.89156,2.23302 -0.49362,0.9802 -0.82977,1.89174 -0.74701,2.02566 0.0844,0.13651 1.70967,0.24348 3.69946,0.24348 2.79991,0 3.57766,-0.0747 3.68482,-0.35397 0.0747,-0.19469 -0.28489,-1.18941 -0.7991,-2.21049 l -0.93493,-1.85652 0.78876,-1.59951 c 0.57742,-1.17096 0.92549,-1.59951 1.29912,-1.59951 0.28071,0 0.51037,-0.15828 0.51037,-0.35173 0,-0.19345 -0.98143,-2.03586 -2.18095,-4.09424 l -2.18095,-3.74281 0.26487,-1.17625 0.26487,-1.17626 -0.12691,1.17598 c -0.11997,1.1118 -0.008,1.3781 2.04309,4.87933 1.19349,2.03684 2.16998,3.8822 2.16998,4.1008 0,0.21861 -0.28159,0.50452 -0.62575,0.63538 -0.38177,0.14514 -0.88788,0.75518 -1.29802,1.56455 l -0.67226,1.32665 0.95462,1.95798 c 0.5383,1.10408 0.88631,2.13598 0.79799,2.36615 -0.13427,0.34991 -0.70283,0.40818 -3.98258,0.40818 -2.95029,0 -3.85563,-0.0774 -3.95565,-0.33801 -0.0713,-0.18591 0.27515,-1.18281 0.76997,-2.21534 0.49483,-1.03252 0.89968,-2.03652 0.89968,-2.23111 0,-0.19459 -0.30391,-0.91219 -0.67536,-1.59467 l -0.67537,-1.24087 H 0.29629397 -2.076346 v 0.71345 c 0,1.00237 -0.53339,1.63915 -1.28423,1.53317 -0.49943,-0.0705 -0.66754,-0.29862 -0.86005,-1.16712 l -0.23928,-1.0795 h -1.59708 -1.59708 l -0.76475,1.3335 c -0.42062,0.73343 -0.76583,1.57178 -0.76714,1.86302 -0.001,0.29123 0.40191,1.36025 0.89605,2.3756 1.23716,2.54209 1.21935,2.55588 -3.3002,2.55588 -1.98527,0 -3.68577,-0.0762 -3.7789,-0.16933 z m 0.59266,-0.85391 c 0,-0.14369 0.3429,-0.94053 0.762,-1.77076 0.4191,-0.83023 0.75879,-1.76995 0.75486,-2.08826 -0.0125,-1.01455 -1.57182,-3.593 -2.27886,-3.76829 -0.36907,-0.0915 -0.60055,-0.30756 -0.55273,-0.51594 0.0452,-0.19718 1.00616,-1.93748 2.13536,-3.86732 l 2.05309,-3.50881 -0.29386,-1.27307 c -0.31201,-1.3517 -0.41423,-13.045088 -0.12911,-14.770358 0.33533,-2.029199 2.49662,-3.279677 4.48467,-2.59474 0.5673,0.195453 1.12486,0.297642 1.23902,0.227089 0.11416,-0.07056 0.20756,-0.811007 0.20756,-1.645449 0,-1.799067 0.44433,-2.9921 1.39199,-3.73753 1.07691,-0.847097 2.29793,-0.97089 3.55455,-0.360378 1.38863997,0.674652 1.91145997,1.756145 1.91145997,3.953953 0,0.913617 0.0934,1.718848 0.20756,1.789404 0.11416,0.07055 0.69376003,-0.03923 1.28799003,-0.243957 1.78161,-0.613814 3.40674,0.08053 4.31471,1.843458 0.39199,0.761096 0.39398,14.679908 0.002,15.803598 -0.26861,0.77053 -0.16741,1.01422 1.92892,4.64479 l 2.2124,3.83158 -0.65138,0.53662 c -0.35825,0.29514 -0.93188,1.15196 -1.27472,1.90405 -0.68018,1.49211 -0.67101,1.56564 0.47805,3.83322 0.36103,0.71246 0.58843,1.4054 0.50533,1.53986 -0.19501,0.31553 -6.13985,0.32099 -6.33463,0.006 -0.0811,-0.13126 0.27099,-1.08443 0.78249,-2.11814 l 0.92999,-1.87948 -0.86098,-1.62836 -0.86101,-1.62836 H 0.20932397 -2.711676 l -0.0788,0.9525 c -0.0498,0.60218 -0.20768,0.9525 -0.42917,0.9525 -0.22148,0 -0.37932,-0.35032 -0.42916,-0.9525 l -0.0788,-0.9525 -2.2197,-0.0734 -2.21971,-0.0733 -0.94749,1.91484 -0.94749,1.91485 0.92929,1.87807 c 0.51111,1.03294 0.86003,1.94734 0.77537,2.032 -0.27586,0.27586 -6.41927,0.17316 -6.41927,-0.10731 z m 4.97828,-0.85605 c 0.075,-0.1954 -0.15912,-0.93835 -0.52025,-1.651 l -0.65658,-1.29571 0.65658,-1.29571 c 0.36113,-0.71264 0.59524,-1.45559 0.52025,-1.651 -0.18109,-0.47193 -3.3598,-0.50604 -3.52176,-0.0378 -0.0604,0.17463 0.18249,0.91758 0.53975,1.651 l 0.64956,1.3335 -0.64956,1.3335 c -0.35726,0.73343 -0.60015,1.47638 -0.53975,1.651 0.16196,0.46825 3.34067,0.43415 3.52176,-0.0378 z m -3.20028,-0.28815 c 0,-0.0745 0.28768,-0.70315 0.63928,-1.397 l 0.63928,-1.26156 -0.63928,-1.26156 c -0.3516,-0.69385 -0.63928,-1.3225 -0.63928,-1.397 0,-0.0745 0.48578,-0.11715 1.0795,-0.0948 0.93577,0.0352 0.96959,0.0543 0.254,0.14309 -0.95189,0.11813 -0.96149,0.15589 -0.33774,1.3272 l 0.46646,0.87594 0.52801,-1.03499 c 0.2904,-0.56924 0.45671,-1.10629 0.36956,-1.19344 -0.0872,-0.0871 -0.0251,-0.15845 0.13788,-0.15845 0.39793,0 0.37934,0.11152 -0.21167,1.27 -0.63756,1.24974 -0.63756,1.79826 0,3.048 0.61907,1.21346 0.6222,1.27515 0.0635,1.24995 -0.25743,-0.0116 -0.3129,-0.0733 -0.13181,-0.14656 0.23021,-0.0931 0.17357,-0.39919 -0.21478,-1.16041 l -0.52746,-1.03391 -0.55916,0.98997 -0.55916,0.98996 0.64694,0.16045 c 0.5964,0.14791 0.58245,0.16279 -0.17857,0.1905 -0.45402,0.0165 -0.8255,-0.0309 -0.8255,-0.10539 z m 21.01894,0.0292 c 0.0919,-0.0919 0.0402,-0.47708 -0.11494,-0.85592 -1.00626,-2.45735 -0.98333,-2.24903 -0.38347,-3.48373 0.84372,-1.73662 0.78795,-1.84638 -0.98822,-1.94502 -2.35786,-0.13094 -2.32805,-0.19834 -1.16687,2.63857 0.23554,0.57545 0.18852,0.88811 -0.27797,1.84829 -0.67763,1.39477 -0.70347,1.83156 -0.11697,1.97723 0.62026,0.15404 2.84597,0.023 3.04844,-0.17942 z m -2.98494,-0.41185 c 0,-0.14526 0.2286,-0.71221 0.508,-1.25988 0.63318,-1.24114 0.63318,-1.55286 0,-2.794 -0.2794,-0.54767 -0.508,-1.11461 -0.508,-1.25988 0,-0.14761 0.56023,-0.26412 1.27,-0.26412 1.48375,0 1.54847,0.17525 0.70544,1.91046 l -0.56457,1.16204 0.56527,1.06725 c 0.82122,1.55049 0.75826,1.70225 -0.70614,1.70225 -0.70977,0 -1.27,-0.11651 -1.27,-0.26412 z m 2.286,-0.10826 c 0,-0.27541 -0.86977,-1.91362 -1.016,-1.91362 -0.14622,0 -1.016,1.63821 -1.016,1.91362 0,0.0651 0.4572,0.11838 1.016,0.11838 0.5588,0 1.016,-0.0533 1.016,-0.11838 z m -0.4445,-3.96781 c 0.63236,-1.11103 0.56971,-1.24781 -0.5715,-1.24781 -0.5588,0 -1.016,0.0533 -1.016,0.11838 0,0.25851 0.86519,1.91352 0.99955,1.91202 0.0789,-7.7e-4 0.34348,-0.35305 0.58795,-0.78259 z m -16.25988,-3.37754 c 0.10263,-0.1558 0.18836,-1.62629 0.1905,-3.26777 l 0.004,-2.9845 h 1.26516 c 1.55485,0 1.57818,-0.0622 1.47572,-3.937 -0.0587,-2.22 -0.14856,-2.794 -0.43738,-2.794 -0.40059,0 -7.60892,12.1734 -7.62663,12.87982 -0.009,0.36581 0.29767,0.44677 1.95763,0.51648 2.20228,0.0925 2.89775,0.002 3.17111,-0.41303 z m -4.56398,-0.38747 c 0.16482,-0.63026 6.32673,-11.2391 6.45404,-11.11179 0.0509,0.0509 -1.29035,2.46662 -2.98059,5.36823 -1.69024,2.90161 -3.13352,5.43295 -3.2073,5.62521 -0.1066,0.27778 0.26101,0.34955 1.79045,0.34955 h 1.92459 l 0.0711,-3.2385 0.0711,-3.2385 1.35293,-0.0774 1.35292,-0.0774 -0.0658,-2.64896 c -0.0362,-1.45693 0.0161,-2.73097 0.11637,-2.83119 0.10022,-0.10022 0.14968,1.12667 0.10992,2.72642 l -0.0723,2.90863 -1.27,0.127 -1.27,0.127 -0.127,3.175 -0.127,3.17499 -2.12794,0.0743 c -2.01856,0.0705 -2.12114,0.0482 -1.99542,-0.4325 z m 22.39838,0.65311 c 0.43442,-0.31766 0.20723,-0.78264 -3.44396,-7.0485 -2.14998,-3.68963 -4.02336003,-6.679834 -4.16306003,-6.644909 -0.15394,0.03849 -0.254,1.439339 -0.254,3.555999 v 3.4925 l 1.39700003,0.127 1.397,0.127 0.127,3.175 0.127,3.175 1.905,0.14474 c 1.04775,0.0796 2.02603,0.16533 2.17396,0.1905 0.14792,0.0252 0.47825,-0.10728 0.73406,-0.29433 z m -4.51668,-0.33724 c -0.0931,-0.0931 -0.16934,-1.57904 -0.16934,-3.302 v -3.13301 h -1.2192 c -0.67056,0 -1.35636,-0.13716 -1.524,-0.3048 -0.36211003,-0.36211 -0.42955003,-5.43012 -0.0752,-5.64913 0.26618,-0.16451 7.41677,12.05573 7.23059,12.35697 -0.15009,0.24286 -4.00293,0.27158 -4.24288,0.0316 z m 3.84979,-0.4512 c -0.13302,-0.59364 -6.41319,-11.3057 -6.63182,-11.31185 -0.10984,-0.003 -0.16699003,1.10881 -0.127,2.47088 l 0.0727,2.4765 1.397,0.127 1.397,0.127 0.067,2.921 c 0.0368,1.60655 0.11896,3.06388 0.18252,3.2385 0.0777,0.21336 0.70747,0.3175 1.92018,0.3175 1.44102,0 1.78805,-0.0738 1.72247,-0.36653 z m -11.38513,-0.24861 c 0.17909,-1.4047 0.71142,-1.47001 0.81012,-0.0994 l 0.0789,1.09554 2.51900997,0.0732 c 1.84412003,0.0536 2.57463003,-0.0144 2.72661003,-0.254 0.11418,-0.1803 0.20936,-1.3195 0.21149,-2.5319 0.003,-1.66918 -0.093,-2.30126 -0.39525,-2.60349 -0.33462,-0.33462 -1.173,-0.39915 -5.18622,-0.39915 -2.6329,0 -4.96789,0.0694 -5.18886,0.15418 -0.33246,0.12757 -0.40178,0.63317 -0.40178,2.93053 v 2.77635 l 2.3495,-0.073 2.3495,-0.073 z m -4.46392,0.53041 c -0.0715,-0.1863 -0.0965,-1.30073 -0.0555,-2.4765 l 0.0744,-2.13777 h 5.08 5.08 v 2.413 2.413 H -0.04440603 -2.203406 l -0.127,-0.9904 c -0.16025,-1.24931 -0.87287,-1.78275 -1.41187,-1.05689 -0.29593,0.39851 -0.36613,0.4159 -0.36613,0.0907 0,-0.36874 0.49015,-0.71072 1.01864,-0.71072 0.49308,0 1.01336,0.85698 1.01336,1.66914 v 0.87086 H -0.04440603 1.987594 v -2.286 -2.286 h -4.96288 -4.96289 l 0.0734,2.2225 0.0734,2.2225 h 1.84194 c 1.01307,0 1.84174,0.0857 1.8415,0.1905 -2.4e-4,0.10478 -0.86127,0.1905 -1.91341,0.1905 -1.36001,0 -1.95054,-0.0979 -2.04295,-0.33873 z m 4.33692,-10.71027 v -4.571999 h -0.889 -0.889 l -0.0699,4.308669 c -0.0384,2.36977 -0.0106,4.46305 0.0618,4.65173 0.0829,0.21614 0.43768,0.31356 0.95889,0.26332 l 0.82724,-0.0797 z m -1.34302,4.14338 c -0.16939,-0.16939 -0.30798,-0.42126 -0.30798,-0.55973 0,-0.13846 0.16928,-0.0299 0.37618,0.2413 0.32751,0.42927 0.41216,0.44376 0.65433,0.11205 0.22703,-0.31096 0.26002,-0.31388 0.17946,-0.0159 -0.13434,0.4969 -0.52988,0.59436 -0.90199,0.22225 z m -0.19143,-4.65172 c 0.0103,-3.490698 0.0209,-3.55749 0.58195,-3.637165 0.483,-0.0686 0.56615,0.02974 0.53691,0.635 -0.0289,0.599034 -0.0526,0.622694 -0.14466,0.144666 -0.0605,-0.314325 -0.27044,-0.5715 -0.46644,-0.5715 -0.28461,0 -0.37265,0.703171 -0.43729,3.492499 l -0.0809,3.4925 0.0105,-3.556 z m 4.80927997,4.80523 c 0.30217,-0.78746 0.17076,-8.370038 -0.15063,-8.691429 -0.45104997,-0.451053 -1.89656997,-0.383695 -2.08101997,0.09697 -0.2009,0.52353 -0.2009,8.070925 0,8.594455 0.10302,0.26847 0.47324,0.40177 1.11582,0.40177 0.64258997,0 1.01280997,-0.1333 1.11582997,-0.40177 z m -1.70848997,-0.0216 c -0.23479,-0.23479 -0.21422,-8.466591 0.0212,-8.467007 0.10477,-1.88e-4 0.15651,1.895187 0.11496,4.211947 -0.0706,3.93958 -0.046,4.20657 0.381,4.12408 0.41701,-0.0806 0.45654,-0.44522 0.45654,-4.21214 0,-2.26816 0.0857,-4.123844 0.19049997,-4.12374 0.10477,1.04e-4 0.1905,1.873913 0.1905,4.16402 0,3.56255 -0.058,4.18608 -0.40177997,4.318 -0.51647,0.19819 -0.74315,0.19458 -0.95289,-0.0152 z m -6.45886,-5.5645 2.21947,-3.791169 0.003,-3.512038 0.003,-3.512041 -0.74246,-0.742459 c -1.4943,-1.494305 -3.83914,-0.731322 -4.35339,1.416537 -0.23853,0.996277 -0.2714,12.76881 -0.0381,13.66289 0.0653,0.25019 0.24699,0.41316 0.40383,0.36216 0.15684,-0.051 1.28392,-1.79874 2.50464,-3.88388 z m -2.54864,-3.891962 c 0.0693,-6.301521 0.11272,-6.873255 0.55903,-7.366 0.26613,-0.293814 0.60903,-0.531665 0.762,-0.528559 0.15297,0.0031 -0.008,0.224968 -0.35687,0.493024 -0.63333,0.486101 -0.6352,0.500243 -0.71226,5.391854 -0.0425,2.69746 -0.0425,5.704573 0,6.682473 l 0.0773,1.778 1.778,-3.048 c 1.76698,-3.029099 1.77891,-3.062175 1.92394,-5.333999 l 0.14594,-2.286001 0.0446,2.146892 0.0446,2.14689 -1.92031,3.377608 c -1.05618,1.85769 -2.03298,3.37762 -2.17067,3.37762 -0.16011,0 -0.22325,-2.46232 -0.17518,-6.831797 z m 4.22415,-5.434015 c -0.17401,-1.393838 -0.7221,-2.121855 -1.84233,-2.447125 -0.43046,-0.124988 -0.57695,-0.237561 -0.32554,-0.250159 0.25141,-0.0126 0.78995,0.149207 1.19674,0.35957 0.8025,0.414985 1.39038,1.827639 1.21962,2.930685 -0.0639,0.413052 -0.1479,0.212694 -0.24849,-0.592971 z m 12.6888,6.529764 c 0.0406,-3.620626 0.009,-6.941622 -0.0697,-7.379988 -0.0789,-0.438369 -0.44202,-1.095594 -0.80692,-1.4605 -1.20004,-1.200039 -3.5725,-0.687456 -4.12266003,0.890717 -0.37172,1.066327 -0.36618,6.444676 0.007,7.162013 1.47102003,2.824731 4.39546003,7.544701 4.62689003,7.467661 0.20636,-0.0687 0.31269,-2.01462 0.36497,-6.679903 z M 3.029874,58.429805 0.97161397,54.872988 V 51.552263 48.231538 L 1.714084,47.489078 c 0.44759,-0.447591 1.01017,-0.742463 1.41653,-0.742463 0.40637,0 0.96895,0.294872 1.41654,0.742463 l 0.74246,0.74246 v 6.87754 c 0,3.782647 -0.0453,6.877537 -0.10074,6.877537 -0.0554,0 -1.02695,-1.60056 -2.159,-3.55681 z m 2.00574,-3.693734 v -6.488547 l -0.62345,-0.623453 c -0.3429,-0.3429 -0.9196,-0.623456 -1.28155,-0.623456 -0.36195,0 -0.93864,0.280556 -1.28154,0.623456 -0.5975,0.5975 -0.62346,0.759861 -0.62346,3.900041 v 3.276587 l 1.8415,3.210136 c 1.01283,1.76558 1.87008,3.21096 1.905,3.21196 0.0349,0.001 0.0635,-2.91802 0.0635,-6.486724 z M -0.54903603,54.23558 c 0.21927,-0.264201 0.27726,-0.911931 0.18479,-2.063931 -0.11459,-1.427576 -0.24767,-1.791795 -0.88899997,-2.433127 -1.27854,-1.278537 -3.52515,-0.886993 -4.13647,0.720913 -0.34328,0.902889 -0.30155,3.492696 0.0621,3.856381 0.4717,0.471698 4.37487997,0.406158 4.77854997,-0.08024 z M -5.124386,52.48239 c 0,-2.009823 0.12629,-2.354684 1.03417,-2.82417 1.06581,-0.551152 1.71394,-0.456573 2.54137,0.370858 0.67009997,0.670095 0.74245997,0.905281 0.74245997,2.413 v 1.670538 h -2.15899997 -2.159 z m 4.064,-0.159319 c 0,-1.291666 -0.099,-1.634566 -0.62345,-2.159 -0.76192,-0.761924 -1.6295,-0.79536 -2.51729,-0.09702 -0.59899,0.471162 -0.66926,0.697847 -0.66926,2.159 v 1.632565 h 1.905 1.905 z m 0.70641997,-6.815335 0.0714,-3.102376 -0.73736997,-0.737364 c -0.96139,-0.961397 -1.77964,-1.146544 -2.93452,-0.664004 -1.31694,0.550252 -1.67794,1.562172 -1.67794,4.703475 0,1.47692 0.10996,2.601124 0.2637,2.696145 0.14504,0.08964 0.80227,0.02604 1.4605,-0.141318 0.99773,-0.253677 1.34468,-0.239687 2.0858,0.08411 0.48895,0.213624 1.00329997,0.36035 1.14299997,0.326055 0.14709,-0.03611 0.28406,-1.368209 0.32542,-3.164728 z M -1.666716,47.976773 c -0.28149,-0.163482 -1.09403,-0.222656 -1.9685,-0.143363 l -1.48917,0.135032 V 45.46448 c 0,-1.377179 0.12691,-2.782486 0.28201,-3.122904 0.31685,-0.695397 1.20483,-1.182961 2.15449,-1.182961 0.74503,0 1.89025997,1.047717 1.86144997,1.702955 -0.0155,0.353702 -0.0513,0.370543 -0.15933,0.07505 C -1.538766,41.423833 -3.181156,40.970302 -4.246926,42.036075 c -0.57713,0.577132 -0.62343,0.808314 -0.62313,3.1115 l 2.6e-4,2.488045 h 1.8983 c 1.47186,0 1.92164,-0.08559 2.00220997,-0.381 0.0571,-0.20955 0.11716,-0.06667 0.13336,0.3175 0.0321,0.7612 -0.10337,0.827184 -0.83086997,0.404658 z m -37.430163,31.875662 c -0.174625,-0.0705 -0.3175,-0.46149 -0.3175,-0.86894 v -0.74084 h -1.91297 c -2.24264,0 -2.669936,-0.39379 -1.552057,-1.43035 l 0.671027,-0.62221 0.0065,-6.02222 0.0065,-6.02222 0.879439,-1.38038 c 0.787383,-1.23588 0.839879,-1.42409 0.5015,-1.798 -0.584189,-0.64552 -0.559468,-13.853036 0.02714,-14.501234 0.320129,-0.353735 0.413352,-1.11277 0.4445,-3.619142 0.03703,-2.979649 0.07667,-3.211178 0.65519,-3.826886 1.041136,-1.108059 2.499307,-0.752097 3.070207,0.749484 0.152324,0.400643 0.257467,1.952717 0.23365,3.449053 -0.03389,2.129541 0.04457,2.846067 0.36116,3.298063 0.344254,0.49149 0.405142,1.552539 0.409029,7.127857 0.003,4.278205 -0.09348,6.765595 -0.278087,7.170765 -0.240564,0.52798 -0.164569,0.82675 0.510306,2.00631 l 0.79296,1.38595 v 6.10739 6.1074 l 0.676219,0.49259 c 0.449659,0.32755 0.622529,0.6325 0.515971,0.91019 -0.129058,0.33631 -0.532608,0.41759 -2.073222,0.41759 h -1.91297 v 0.73483 c 0,0.90025 -0.729364,1.27246 -1.7145,0.87495 z m 1.460581,-0.97478 c 0.129299,-0.75586 0.145171,-0.7626 1.970133,-0.83663 1.976862,-0.0802 2.271664,-0.34479 1.331786,-1.19537 -0.480962,-0.43526 -0.508,-0.78231 -0.508,-6.52021 v -6.06048 l -0.795389,-1.40936 c -0.673963,-1.19419 -0.752569,-1.50333 -0.514903,-2.02495 0.182923,-0.40147 0.275681,-2.91473 0.266672,-7.225377 -0.01158,-5.544071 -0.07567,-6.67163 -0.39747,-6.993426 -0.298437,-0.298437 -0.392567,-1.120929 -0.423781,-3.702943 -0.03818,-3.15821 -0.06923,-3.342849 -0.639767,-3.804772 -0.75895,-0.614464 -1.343983,-0.614377 -2.102724,3.05e-4 -0.572496,0.463806 -0.600908,0.637781 -0.627675,3.843557 -0.02324,2.783403 -0.09702,3.396369 -0.431335,3.58346 -0.352483,0.197259 -0.404375,1.087435 -0.411843,7.064919 -0.0071,5.711437 0.05352,6.901287 0.367835,7.215607 0.503228,0.50323 0.505234,0.49537 -0.51262,2.00679 l -0.889,1.32009 v 6.12352 c 0,5.80095 -0.02676,6.14775 -0.508,6.58326 -0.939757,0.85047 -0.645048,1.11519 1.330808,1.19538 1.612135,0.0654 1.848797,0.13724 1.919869,0.58262 0.157589,0.98753 0.309118,1.17777 0.874054,1.09732 0.409507,-0.0583 0.607868,-0.29683 0.70135,-0.84332 z m -1.100747,0.21167 c -0.09313,-0.0931 -0.169334,-0.42381 -0.169334,-0.73483 0,-0.69069 -0.430251,-0.87384 -2.052775,-0.87384 -1.165016,0 -1.587014,-0.26925 -0.995225,-0.635 0.157572,-0.0974 0.254,-2.40303 0.254,-6.07316 0,-6.48601 -0.124259,-5.82186 1.681584,-8.98783 0.452387,-0.79312 0.454111,-0.85037 0.03292,-1.09213 -0.388,-0.22269 -0.4445,-0.68131 -0.4445,-3.608 v -3.352879 h 2.032 2.032 v 3.352879 c 0,2.85588 -0.06231,3.38775 -0.420396,3.58814 -0.373816,0.2092 -0.317528,0.41922 0.508,1.8954 l 0.928396,1.66012 0.0015,5.80073 c 0.0013,4.64926 0.07688,5.94515 0.381,6.52827 0.208689,0.40014 0.379435,0.77161 0.379435,0.8255 0,0.0539 -0.600075,0.0997 -1.3335,0.10185 -1.579443,0.005 -1.870966,0.15407 -2.102896,1.07816 -0.173619,0.69175 -0.388366,0.85052 -0.71227,0.52662 z m 2.479522,-12.42181 c 0.509786,-0.50979 0.509786,-1.23193 0,-1.74171 -0.466511,-0.46652 -3.394506,-0.56171 -4.189554,-0.13621 -0.632173,0.33833 -0.662683,1.644 -0.0468,2.00272 0.734591,0.42786 3.773213,0.33834 4.236356,-0.1248 z m -4.164286,-0.47953 c -0.259497,-0.31268 -0.261219,-0.4679 -0.0086,-0.77233 0.173911,-0.20955 0.438353,-0.381 0.587647,-0.381 0.149296,0 0.06069,0.15411 -0.196906,0.34247 -0.810011,0.5923 -0.211397,0.92753 1.65625,0.92753 1.572504,0 1.763009,-0.053 1.763009,-0.49033 0,-0.26969 -0.200025,-0.53809 -0.4445,-0.59647 -0.338359,-0.0808 -0.323197,-0.10017 0.0635,-0.0812 0.365877,0.018 0.508,0.20262 0.508,0.65997 0,0.61072 -0.0689,0.63782 -1.801828,0.70883 -1.379619,0.0565 -1.877931,-0.0179 -2.126602,-0.3175 z m 0.22127,-13.247443 c -0.291796,-0.351592 -0.255974,-0.478444 0.251038,-0.889 1.198153,-0.970206 3.918374,-0.309915 3.321078,0.806143 -0.21493,0.401604 -0.538866,0.492971 -1.747792,0.492971 -1.056028,0 -1.582113,-0.118265 -1.824324,-0.410114 z m 3.244143,-0.25052 c 0.204506,-0.532933 -0.33929,-0.855586 -1.441983,-0.855586 -1.102693,0 -1.646489,0.322653 -1.441983,0.855586 0.114642,0.298752 0.497205,0.406634 1.441983,0.406634 0.944778,0 1.32734,-0.107882 1.441983,-0.406634 z m -3.473983,-3.454245 c 0,-1.823499 0.07617,-2.252508 0.435676,-2.453696 0.382097,-0.213833 0.426237,-0.634073 0.358927,-3.417077 -0.08737,-3.612316 0.0954,-4.238349 1.237397,-4.238349 1.131643,0 1.31369,0.61921 1.245827,4.237493 -0.05159,2.750314 -0.0018,3.220839 0.363187,3.425035 0.344098,0.192567 0.422986,0.648863 0.422986,2.446594 v 2.209879 h -2.032 -2.032 z m -24.68207,30.042728 c -0.369079,-0.29032 -0.913787,-0.52785 -1.210462,-0.52785 -0.659601,0 -0.908211,-0.5511 -0.550301,-1.21986 0.231723,-0.43298 0.168332,-0.51714 -0.488441,-0.64849 -0.918717,-0.18375 -0.963537,-0.65267 -0.226056,-2.36509 0.290767,-0.67516 0.69497,-1.62293 0.898229,-2.10617 0.307697,-0.73153 0.368784,-3.09959 0.364923,-14.14646 l -0.0046,-13.267865 0.630408,-0.749199 c 0.387929,-0.461027 0.634672,-1.07704 0.641492,-1.601532 0.02093,-1.609362 0.621713,-3.892953 1.045669,-3.974599 0.416101,-0.08013 0.736585,0.66466 0.687728,1.598265 -0.01676,0.320288 -0.08587,0.234175 -0.18703,-0.233045 -0.270025,-1.247138 -0.702221,-1.024969 -1.012599,0.520524 -0.379169,1.888012 -0.369948,2.887285 0.02665,2.888471 0.174625,5.33e-4 -0.05091,0.225576 -0.501183,0.500121 -0.450276,0.274544 -0.878291,0.759892 -0.951146,1.07855 -0.07285,0.318659 -0.104496,6.35153 -0.07032,13.406379 l 0.06215,12.827 1.771965,0.0764 c 1.467309,0.0633 1.831093,-0.002 2.115886,-0.381 0.323753,-0.43059 0.339003,-0.42619 0.26005,0.0751 -0.04613,0.29286 0.04729,0.69291 0.207599,0.889 0.16031,0.19609 0.667875,1.25652 1.12792,2.35651 0.808007,1.93199 0.820196,2.01188 0.358468,2.3495 -0.26289,0.19223 -0.6204,0.34951 -0.794467,0.34951 -0.219842,0 -0.27243,0.27147 -0.172219,0.889 0.138724,0.85486 0.114213,0.889 -0.638348,0.889 -0.430436,0 -0.877331,0.16926 -0.993102,0.37612 -0.369885,0.66095 -1.648632,0.74183 -2.398824,0.15173 z m 2.008007,-0.27385 c 0.248654,-0.2904 0.749285,-0.508 1.168781,-0.508 0.701083,0 0.726379,-0.0397 0.567043,-0.889 -0.14363,-0.7656 -0.09898,-0.889 0.32163,-0.889 1.045738,0 1.088839,-0.57474 0.20145,-2.68624 l -0.845894,-2.01276 -2.157633,-0.0728 c -2.454105,-0.0828 -2.341868,-0.1564 -3.333736,2.18506 -0.865592,2.04336 -0.855307,2.31031 0.09635,2.50064 0.587402,0.11748 0.734828,0.2548 0.606784,0.56515 -0.362237,0.87801 -0.24223,1.17168 0.513921,1.25766 0.414498,0.0471 0.906752,0.30431 1.093904,0.5715 0.440784,0.62931 1.217928,0.61955 1.767403,-0.0222 z m -1.258976,-0.14171 c -0.243881,-0.24388 0.106995,-1.1539 0.40688,-1.05528 0.4332,0.14247 0.513509,1.19699 0.09116,1.19699 -0.195984,0 -0.420101,-0.0638 -0.49804,-0.14171 z m -1.816209,-0.82292 c -0.06888,-0.11144 -0.01847,-0.36862 0.112009,-0.5715 0.207414,-0.32249 0.267068,-0.32249 0.474482,0 0.251889,0.39165 0.134673,0.77413 -0.237241,0.77413 -0.12321,0 -0.280373,-0.0912 -0.34925,-0.20263 z m 3.699604,-0.24187 c 0.04708,-0.24447 0.196771,-0.4445 0.332646,-0.4445 0.135874,0 0.285564,0.20003 0.332646,0.4445 0.05354,0.27803 -0.07104,0.4445 -0.332646,0.4445 -0.26161,0 -0.386189,-0.16647 -0.332646,-0.4445 z m -2.688179,-0.46527 c -0.224574,-0.58523 -0.206585,-0.61423 0.381,-0.61423 0.383655,0 0.491526,0.11375 0.381,0.40178 -0.0848,0.22097 -0.154175,0.44957 -0.154175,0.508 0,0.28625 -0.472778,0.0564 -0.607825,-0.29555 z m 1.793159,0.23244 c -0.357309,-0.35731 -0.145857,-0.84667 0.365841,-0.84667 0.383655,0 0.491526,0.11375 0.381,0.40178 -0.0848,0.22097 -0.154175,0.44957 -0.154175,0.508 0,0.16718 -0.405559,0.124 -0.592666,-0.0631 z m -3.872883,-1.99822 c 0.08884,-0.35396 0.440089,-1.27345 0.78056,-2.04331 l 0.619036,-1.39976 1.850476,0.0748 1.850477,0.0748 0.669208,1.397 c 0.368064,0.76835 0.747243,1.65418 0.842617,1.9685 l 0.173409,0.5715 h -3.473653 -3.473652 z m 1.732351,-15.67595 0.0662,-10.9855 h 1.524 1.524 l 0.0662,10.9855 0.0662,10.9855 h -1.656397 -1.656398 z M 7.176204,54.874656 c 0,-3.14325 0.0365,-4.429125 0.081,-2.8575 0.0446,1.571625 0.0446,4.143375 0,5.715 -0.0446,1.571629 -0.081,0.285749 -0.081,-2.8575 z m 62.41016,-2.336389 c -0.0456,-1.564663 0.97766,-4.743483 2.18125,-6.77642 2.47746,-4.184577 8.31084,-7.738119 12.50586,-7.618239 0.94663,0.02705 0.82455,0.0712 -0.68167,0.246516 -3.43294,0.39958 -7.56744,2.512215 -9.72455,4.969023 -2.23833,2.549316 -3.71277,5.754791 -4.07011,8.848509 -0.17335,1.500835 -0.17655,1.505859 -0.21078,0.330611 z M -62.078429,48.838099 c -0.06451,-0.246705 -0.02873,-0.67533 0.07952,-0.9525 0.149921,-0.38386 0.201076,-0.276972 0.214673,0.448556 0.01913,1.020623 -0.103949,1.231453 -0.294198,0.503944 z M 6.848204,48.215995 c -0.0422,-0.840779 -1.28328,-2.309673 -2.3113,-2.735493 -0.75467,-0.312596 -2.28235,-0.25913 -3.12079,0.109221 -0.39465,0.173386 -0.44512003,0.02847 -0.45007003,-1.292393 -0.007,-1.877206 -0.69911,-3.459365 -1.82116,-4.163433 C -1.519186,39.717202 -2.004336,39.626489 -3.168786,39.70129 c -1.29633,0.08327 -1.58475,0.205984 -2.39979,1.021029 -0.86924,0.869235 -0.93503,1.048367 -1.0666,2.903859 -0.11257,1.587713 -0.2153,1.958494 -0.52121,1.881167 -2.24778,-0.568204 -3.99294,-0.05721 -5.01143,1.467372 -0.31711,0.474685 -0.57657,0.735838 -0.57657,0.580339 0,-0.555912 1.56577,-2.052789 2.45385,-2.345881 0.53399,-0.176233 1.41311,-0.231021 2.14631,-0.13376 l 1.24184,0.164737 5.1e-4,-1.469248 c 6.3e-4,-2.758511 1.46376,-4.390249 3.93649,-4.390249 2.39826997,0 4.191,1.970882 4.191,4.607468 v 1.197828 l 1.34749,-0.139073 c 1.05893,-0.109291 1.57017,-0.02546 2.3874,0.391457 1.18784,0.605993 2.19645,2.040707 2.0329,2.891749 -0.097,0.504713 -0.11486,0.490667 -0.1452,-0.114089 z m -72.255247,-0.368674 c -0.350406,-0.350403 -0.174071,-2.837643 0.229809,-3.241523 0.607091,-0.60709 2.032234,-0.513098 2.507455,0.165374 0.536669,0.766204 0.532303,2.8846 -0.0064,3.091308 -0.540784,0.207518 -2.519198,0.196538 -2.730891,-0.01516 z m 3.406719,-0.9525 c -0.01102,-0.267756 0.049,-0.417776 0.133406,-0.333375 0.0844,0.0844 0.09342,0.303479 0.02004,0.486834 -0.08108,0.202624 -0.141269,0.142439 -0.153456,-0.153459 z m 0.0094,-1.586087 c -0.0162,-0.301906 -0.372798,-0.837817 -0.792429,-1.190913 -0.419631,-0.353096 -0.651099,-0.71113 -0.514373,-0.79563 0.136726,-0.0845 0.197112,-0.69159 0.134191,-1.349087 l -0.114389,-1.195449 0.311274,1.397 c 0.171201,0.76835 0.520764,1.705705 0.776803,2.083011 0.256043,0.377306 0.412176,0.891656 0.346964,1.143 -0.09675,0.372915 -0.123985,0.356001 -0.148028,-0.09193 z m -2.342365,-2.435579 c -0.06343,-0.74828 0.08543,-1.857869 0.275877,-2.056359 0.250386,-0.260956 0.621601,1.738709 0.391798,2.110538 -0.224854,0.363819 -0.635064,0.330532 -0.667675,-0.05418 z"
       id="path5117"
       inkscape:connector-curvature="0"
       clip-path="url(#clipPath5121)"
       transform="matrix(0.18407754,0.16916105,-0.13532884,0.14726203,168.87272,236.78908)" />
  </g>
</svg>
